<?xml version="1.0" standalone="no"?>
<!DOCTYPE svg PUBLIC "-//W3C//DTD SVG 1.1//EN" "http://www.w3.org/Graphics/SVG/1.1/DTD/svg11.dtd" >
<svg xmlns="http://www.w3.org/2000/svg" xmlns:xlink="http://www.w3.org/1999/xlink" version="1.1" viewBox="-10 0 1192 2048">
  <g transform="matrix(1 0 0 -1 0 1024)">
   <path fill="currentColor"
d="M1095 568c13.1533 0 37 -3.96002 37 -54c0 -113.159 -136.968 -348 -386 -348c-53 0 -79 4 -126 21c3 -79 67.9961 -139 188 -139c182.044 0 244 96.0002 259 124c7.61426 14.2129 25.6543 42 49 42c9 0 11 -7 11 -16c0 -7.25977 -36.0004 -105.371 -115 -169
c-50.3838 -40.5811 -129 -87 -240 -87c-152 0 -222 62 -228 188c-36 -68 -133.997 -189 -300 -189c-143.004 0 -193 124.937 -193 323c0 124 100.986 302 245 302c95.4148 0 132.304 -47.3779 181.578 -110.794c6.56392 18.9456 21.7739 52.5704 42.4218 68.7938
c28.59 22.4636 86.5986 51 98 51c14 0 21 -12.9844 21 -45c0 -25.6595 -1.24463 -64.4415 -2.34534 -85.7079c71.9741 98.0283 245.398 125.708 375.345 125.708c31.4229 0 58.4203 -2 83 -2zM620 316c64 -32 110 -42 190 -42c133 0 250 92.7469 250 164c0 15 0 25 -20 25
c-189 0 -410 -13 -420 -147zM534 229c-161 120 -141.987 231 -301 231c-44.6706 0 -73.2031 -18.4062 -90 -52c-7 -14 -19 -23.9804 -19 -126c0 -107 39.9844 -234 166 -234c112.005 0 200 44 244 181zM497.914 429.311c18.0279 -22.4937 38.4997 -46.3243 64.086 -70.3115
c2.44336 22.1934 5 52.0428 5 95c0 16.2788 -2.6709 17 -9 17c-6.32618 0 -39.5412 -29.3901 -60.086 -41.6885z" />
  </g>

</svg>
