<?xml version="1.0" standalone="no"?>
<!DOCTYPE svg PUBLIC "-//W3C//DTD SVG 1.1//EN" "http://www.w3.org/Graphics/SVG/1.1/DTD/svg11.dtd" >
<svg xmlns="http://www.w3.org/2000/svg" xmlns:xlink="http://www.w3.org/1999/xlink" version="1.1" viewBox="-10 0 1117 2048">
  <g transform="matrix(1 0 0 -1 0 1024)">
   <path fill="currentColor"
d="M522 751c-44 29 -130 53 -184 53c-139 0 -149 -235 -155 -375c0 0 210 69 307 69c6 0 12 0 17 -1c0 0 9 155 15 254zM867 986c75 0 107 -6 182 -6c18 0 18 -15 18 -25c0 -25 -39 -84 -64 -84c-75 0 -117 11 -192 11c-89 0 -186 -35 -219 -71c0 0 -15 -259 -24 -424
c83 54 158 80 266 80c51 0 128 0 128 -22c0 -30 -37 -92 -61 -92c-27 0 -35 6 -123 6c-85 0 -143 -19 -211 -54c0 0 -3 -162 -5 -266c90 63 186 94 313 94c21 0 48 -2 48 -23c0 -32 -42 -86 -67 -86c-122 0 -170 0 -318 -79c-20 -5 -15 -29 -38 -29c-10 0 -10 61 -10 100
c0 144 4 226 6 370c0 0 -14 4 -39 4c-11 0 -29 1 -51 1c-62 0 -155 -6 -229 -47c-28 -314 -81 -398 -112 -398c-9 0 -17 8 -17 17c0 18 64 95 64 421c0 377 157 525 271 525c45 0 133 -22 175 -42c100 78 180 119 309 119z" />
  </g>

</svg>
