<?xml version="1.0" standalone="no"?>
<!DOCTYPE svg PUBLIC "-//W3C//DTD SVG 1.1//EN" "http://www.w3.org/Graphics/SVG/1.1/DTD/svg11.dtd" >
<svg xmlns="http://www.w3.org/2000/svg" xmlns:xlink="http://www.w3.org/1999/xlink" version="1.1" viewBox="-10 0 837 2048">
  <g transform="matrix(1 0 0 -1 0 1024)">
   <path fill="currentColor"
d="M234 449c-69 -101 -109 -179 -109 -337c0 -34 41 -72 119 -72c90 0 145 38 218 78c0 0 -135 205 -228 331zM158 857c-3 -15 -5 -27 -5 -43c0 -46 66 -141 120 -221c22 52 42 88 42 148c0 63 -32 133 -88 133c-28 0 -46 -4 -69 -17zM273 982c72 0 114 -82 114 -144
c0 -117 -34 -188 -88 -287c0 0 160 -223 250 -368c82 79 124 127 194 214c8 10 15 18 28 18c9 0 10 -12 10 -21c0 -45 -114 -164 -202 -260c52 -98 104 -194 104 -269c0 -34 -43 -93 -64 -93c-6 0 -10 5 -10 11c0 103 -78 220 -114 281c-88 -71 -198 -133 -306 -133
c-64 0 -138 19 -138 138c0 105 34 191 50 230c40 97 80 151 106 194c-30 45 -126 176 -126 243c0 116 70 246 192 246z" />
  </g>

</svg>
