<?xml version="1.0" standalone="no"?>
<!DOCTYPE svg PUBLIC "-//W3C//DTD SVG 1.1//EN" "http://www.w3.org/Graphics/SVG/1.1/DTD/svg11.dtd" >
<svg xmlns="http://www.w3.org/2000/svg" xmlns:xlink="http://www.w3.org/1999/xlink" version="1.1" viewBox="-10 0 497 2048">
  <g transform="matrix(1 0 0 -1 0 1024)">
   <path fill="currentColor"
d="M260 483c7 0 11 -6 11 -13c0 -24 -1 -42 -1 -60s1 -36 3 -60c54 41 120 99 138 99c7 0 9 -9 9 -16c0 -33 -20 -65 -68 -101c35 -1 84 0 84 -33c0 -34 -27 -66 -47 -85c9 -8 18 -13 18 -25c0 -44 -45 -93 -63 -93c-7 0 -41 37 -68 61c-3 -64 -45 -109 -65 -109
c-8 0 -10 8 -10 20c0 14 4 33 4 47c0 37 -2 61 -3 98c-32 -28 -49 -46 -75 -78c-16 -20 -28 -43 -49 -43c-7 0 -9 9 -9 16c0 34 31 69 58 107c-26 -1 -40 -2 -66 -2c-4 0 -8 7 -8 13c0 42 34 80 54 94c-14 10 -28 17 -28 29c0 44 46 94 62 94c9 0 35 -27 58 -44
c13 51 43 84 61 84z" />
  </g>

</svg>
