<?xml version="1.0" standalone="no"?>
<!DOCTYPE svg PUBLIC "-//W3C//DTD SVG 1.1//EN" "http://www.w3.org/Graphics/SVG/1.1/DTD/svg11.dtd" >
<svg xmlns="http://www.w3.org/2000/svg" xmlns:xlink="http://www.w3.org/1999/xlink" version="1.1" viewBox="-10 0 716 2048">
  <g transform="matrix(1 0 0 -1 0 1024)">
   <path fill="currentColor"
d="M347 567c190 0 296 -117 296 -274c0 -124 -108 -315 -287 -315c-181 0 -303 106 -303 262c0 166 123 327 294 327zM108 293c0 -76 37 -127 87 -174c48 -45 130 -59 219 -59c44 0 116 29 146 78c21 33 27 62 27 118c0 75 -38 148 -125 199c-49 29 -119 31 -183 31
c-45 0 -104 -37 -125 -56c-35 -31 -46 -86 -46 -137zM416 446c7 0 83 -34 83 -122c0 -41 -16 -90 -41 -133c7 -10 13 -16 18 -16c3 0 9 0 9 -17c0 -21 -34 -64 -50 -64c-8 0 -19 12 -32 32c-21 -17 -44 -28 -67 -28c-89 0 -168 66 -168 155c0 72 72 167 116 167
c52 0 112 -123 153 -195c5 12 7 26 7 39c0 64 -46 95 -66 99c-6 1 -9 6 -9 12c0 17 26 71 47 71zM370 180c-40 70 -88 158 -126 158c-15 0 -22 -9 -22 -41c0 -41 50 -113 148 -117z" />
  </g>

</svg>
