<?xml version="1.0" standalone="no"?>
<!DOCTYPE svg PUBLIC "-//W3C//DTD SVG 1.1//EN" "http://www.w3.org/Graphics/SVG/1.1/DTD/svg11.dtd" >
<svg xmlns="http://www.w3.org/2000/svg" xmlns:xlink="http://www.w3.org/1999/xlink" version="1.1" viewBox="-10 0 666 2048">
  <g transform="matrix(1 0 0 -1 0 1024)">
   <path fill="currentColor"
d="M181 536c0 0 202 152 334 324c0 0 -19 48 -167 48c-38 0 -85 -3 -142 -12c0 0 -17 -194 -25 -360zM97 956c51 41 167 60 278 60c90 0 218 -9 218 -72c0 -128 -173 -267 -296 -390c136 -77 315 -185 315 -309c0 -158 -86 -313 -257 -313c-79 0 -115 52 -174 102v4
c0 20 23 97 70 97c45 -44 94 -92 176 -92c65 0 113 17 113 115c0 113 -204 230 -360 314c0 0 -8 -180 -8 -338c0 -33 0 -66 1 -95c-2 -32 -26 -84 -71 -85c-3 0 -5 58 -5 150c0 193 9 533 40 783c-28 -12 -48 -19 -72 -32c-10 0 -14 10 -14 23c0 24 19 57 46 78z" />
  </g>

</svg>
