<?xml version="1.0" standalone="no"?>
<!DOCTYPE svg PUBLIC "-//W3C//DTD SVG 1.1//EN" "http://www.w3.org/Graphics/SVG/1.1/DTD/svg11.dtd" >
<svg xmlns="http://www.w3.org/2000/svg" xmlns:xlink="http://www.w3.org/1999/xlink" version="1.1" viewBox="-10 0 319 2048">
  <g transform="matrix(1 0 0 -1 0 1024)">
   <path fill="currentColor"
d="M152 1011c61 0 98 -42 98 -96c0 -148 -39 -260 -124 -360c0 0 2 -36 139 -106c0 0 -91 -58 -139 -95c9 -42 137 -42 137 -216c0 -122 -109 -241 -198 -241c-8 0 -10 9 -10 17c0 42 43 90 58 90c31 0 50 13 74 31c0 70 -4 118 -36 144c-71 58 -99 42 -99 113
c0 49 25 80 51 115c-21 17 -53 45 -53 83c0 51 37 95 75 142c32 39 52 102 52 213c0 25 -25 52 -51 56c-6 1 -11 1 -17 1c-14 0 -27 -2 -37 -2c-8 0 -9 9 -9 17c0 0 12 94 89 94z" />
  </g>

</svg>
