<?xml version="1.0" standalone="no"?>
<!DOCTYPE svg PUBLIC "-//W3C//DTD SVG 1.1//EN" "http://www.w3.org/Graphics/SVG/1.1/DTD/svg11.dtd" >
<svg xmlns="http://www.w3.org/2000/svg" xmlns:xlink="http://www.w3.org/1999/xlink" version="1.1" viewBox="-10 0 390 2048">
  <g transform="matrix(1 0 0 -1 0 1024)">
   <path fill="currentColor"
d="M228 750h81c14 0 16 -9 16 -15c0 -41 -44 -92 -62 -92c-53 0 -84 -1 -137 -1c0 -139 9 -346 9 -352c0 -7 -10 -248 -10 -430v-45c21 -3 34 -5 55 -5c37 0 57 4 94 4c16 0 20 -8 20 -19c0 -29 -44 -92 -62 -92c-10 0 -15 3 -25 3c-37 0 -77 -3 -114 -3
c-31 0 -41 15 -41 46c0 182 6 287 10 469c-3 157 -8 245 -8 402c0 40 22 91 57 115c20 13 43 15 75 15h42z" />
  </g>

</svg>
