<?xml version="1.0" standalone="no"?>
<!DOCTYPE svg PUBLIC "-//W3C//DTD SVG 1.1//EN" "http://www.w3.org/Graphics/SVG/1.1/DTD/svg11.dtd" >
<svg xmlns="http://www.w3.org/2000/svg" xmlns:xlink="http://www.w3.org/1999/xlink" version="1.1" viewBox="-10 0 336 2048">
  <g transform="matrix(1 0 0 -1 0 1024)">
   <path fill="currentColor"
d="M211 992c35 0 47 -1 47 -15c0 -38 -36 -93 -59 -93c-15 0 -25 3 -37 3c-5 0 -11 0 -17 -2c0 -226 126 -269 126 -332c0 -50 -28 -85 -51 -119c26 -19 51 -44 51 -82c0 -47 -18 -76 -40 -104c-24 -31 -54 -46 -92 -70c-5 -19 -8 -35 -8 -50c0 -29 8 -51 17 -68
c16 -33 74 -70 107 -70c8 0 12 -10 12 -18c0 -33 -38 -90 -61 -90c-53 0 -146 54 -146 154c0 121 59 221 133 259c-31 41 -71 63 -139 109c0 0 89 47 141 83c-42 55 -87 99 -109 203c-9 45 -13 85 -13 137c0 61 55 165 138 165z" />
  </g>

</svg>
