<?xml version="1.0" standalone="no"?>
<!DOCTYPE svg PUBLIC "-//W3C//DTD SVG 1.1//EN" "http://www.w3.org/Graphics/SVG/1.1/DTD/svg11.dtd" >
<svg xmlns="http://www.w3.org/2000/svg" xmlns:xlink="http://www.w3.org/1999/xlink" version="1.1" viewBox="-10 0 208 2048">
  <g transform="matrix(1 0 0 -1 0 1024)">
   <path fill="currentColor"
d="M115 449c10 0 14 -10 14 -20c0 -252.002 10 -309.993 10 -380c0 -32.1403 -44.5835 -90 -64 -90c-6 0 -8.8816 8.00117 -9 14c-3 152 -10 234 -10 384c0 43 45.0716 92 59 92zM112 1003c9 0 14 -9 14 -18c0 -149 -1 -233 -1 -382c0 -42 -46.6822 -90 -61 -90
c-6 0 -12 2 -12 8c0 151 -1 237 -1 388c0 27 30.5369 94 61 94z" />
  </g>

</svg>
