<?xml version="1.0" standalone="no"?>
<!DOCTYPE svg PUBLIC "-//W3C//DTD SVG 1.1//EN" "http://www.w3.org/Graphics/SVG/1.1/DTD/svg11.dtd" >
<svg xmlns="http://www.w3.org/2000/svg" xmlns:xlink="http://www.w3.org/1999/xlink" version="1.1" viewBox="-10 0 291 2048">
  <g transform="matrix(1 0 0 -1 0 1024)">
   <path fill="currentColor"
d="M128 33h27c-5 -10 -5 -9 -12 -26c0 0 -4 -11 -4 -19c61 -13 101 -73 101 -106c0 -37 -36 -154 -183 -154c-3 0 -5 5 -5 9c0 12 26 73 52 73c18 0 68 14 79 30c-1 79 -97 64 -97 67c0 68 35 115 42 126z" />
  </g>

</svg>
