<?xml version="1.0" standalone="no"?>
<!DOCTYPE svg PUBLIC "-//W3C//DTD SVG 1.1//EN" "http://www.w3.org/Graphics/SVG/1.1/DTD/svg11.dtd" >
<svg xmlns="http://www.w3.org/2000/svg" xmlns:xlink="http://www.w3.org/1999/xlink" version="1.1" viewBox="-10 0 511 2048">
  <g transform="matrix(1 0 0 -1 0 1024)">
   <path fill="currentColor"
d="M282 582c4.76294 0 8.47763 -6.31346 8.47763 -16c0 -19.925 -0.477627 -54.1221 -0.477627 -77c117 -18 163 -96.9616 163 -110c0 -46 -39.9201 -97 -65 -97c-8.544 0 -33.9966 99 -181 99c-30 0 -57 -13 -77 -31c-5.20536 -13.6258 -7.52749 -27.4157 -7.52749 -41
c0 -75.1448 74.4595 -144 151.527 -144c38 0 62 7 95 24c10 14 22.8579 32 37 32c7 0 12 -7 12 -14c0 -36.0139 -44 -117 -138 -144c-1 -49 -39.9093 -101 -62 -101c-12.0416 0 -11 57 -12 94c-82 13 -155 84 -155 175c0 118 84 230 168 251c1 45 38.8132 100 63 100z" />
  </g>

</svg>
