<?xml version="1.0" standalone="no"?>
<!DOCTYPE svg PUBLIC "-//W3C//DTD SVG 1.1//EN" "http://www.w3.org/Graphics/SVG/1.1/DTD/svg11.dtd" >
<svg xmlns="http://www.w3.org/2000/svg" xmlns:xlink="http://www.w3.org/1999/xlink" version="1.1" viewBox="-10 0 607 2048">
  <g transform="matrix(1 0 0 -1 0 1024)">
   <path fill="currentColor"
d="M430 342c0 -20 -26 -64 -44 -64c-10 0 -41 70 -126 70c-17 0 -33 -2 -42 -13c-1 -6 -1 -13 -1 -19c0 -74 41 -161 118 -161c25 0 40 15 55 35c8 11 11 24 25 24c5 0 7 -7 7 -12c0 -31 -59 -119 -127 -119c-71 0 -127 91 -127 175c0 61 41 162 120 162
c86 0 142 -71 142 -78zM101 276c0 -132 95 -239 239 -239c90 0 161 76 161 166c0 155 -51 273 -237 273c-59 0 -119 -37 -139 -68c-15 -23 -24 -75 -24 -132zM319 550c175 0 231 -145 231 -290c0 -121 -102 -296 -262 -296c-138 0 -236 125 -236 263c0 179 104 323 267 323z
" />
  </g>

</svg>
