<?xml version="1.0" standalone="no"?>
<!DOCTYPE svg PUBLIC "-//W3C//DTD SVG 1.1//EN" "http://www.w3.org/Graphics/SVG/1.1/DTD/svg11.dtd" >
<svg xmlns="http://www.w3.org/2000/svg" xmlns:xlink="http://www.w3.org/1999/xlink" version="1.1" viewBox="-10 0 616 2048">
  <g transform="matrix(1 0 0 -1 0 1024)">
   <path fill="currentColor"
d="M299 377c-102.176 0 -126 -32.993 -126 -104c0 -76.0263 83 -135 167 -135c36 0 97 30 97 95c0 60.075 -30.9953 144 -138 144zM541 550c5 0 7 -7 7 -12c0 -34.3657 -52 -85 -91 -136c22 -27 35 -66 35 -111c0 -50 -18 -91 -39 -125c39 -46 95 -116.598 95 -128
c0 -34 -33.3985 -73 -47 -73c-10 0 -16 46 -109 132c-30 -23 -60.8682 -38 -95 -38c-41.1094 0 -80 14 -120 41c-31 -19 -47 -34 -67 -64c-10.2282 -15.3422 -11 -28 -23 -42c-10 -12 -16 -24 -31 -24c-5 0 -5 7 -5 12c0 35.2278 49 108 93 151c-9 16 -24 38 -24 65
c0 62 10 114 38 155c-36 46 -85 114.546 -85 128c0 33 30.9667 71 46 71c11.1334 0 27.2804 -53.9109 97 -132c40 29 76 37 128 37c35 0 57 -12 87 -26c63 64 88.905 119 110 119z" />
  </g>

</svg>
