<?xml version="1.0" standalone="no"?>
<!DOCTYPE svg PUBLIC "-//W3C//DTD SVG 1.1//EN" "http://www.w3.org/Graphics/SVG/1.1/DTD/svg11.dtd" >
<svg xmlns="http://www.w3.org/2000/svg" xmlns:xlink="http://www.w3.org/1999/xlink" version="1.1" viewBox="-10 0 903 2048">
  <g transform="matrix(1 0 0 -1 0 1024)">
   <path fill="currentColor"
d="M766 465c-461 -5 -634 -50 -634 -195c0 -177 260 -252 464 -252c145 0 173 38 173 266c0 50 -1 110 -3 181zM745 910c3 45 40 77 77 81c2 -274 24 -407 24 -597c0 -186 -21 -467 -364 -467c-216 0 -430 111 -430 302c0 66 26 327 709 331c0 0 -17 113 -17 278
c0 25 0 49 1 72z" />
  </g>

</svg>
