<?xml version="1.0" standalone="no"?>
<!DOCTYPE svg PUBLIC "-//W3C//DTD SVG 1.1//EN" "http://www.w3.org/Graphics/SVG/1.1/DTD/svg11.dtd" >
<svg xmlns="http://www.w3.org/2000/svg" xmlns:xlink="http://www.w3.org/1999/xlink" version="1.1" viewBox="-10 0 885 2048">
  <g transform="matrix(1 0 0 -1 0 1024)">
   <path fill="currentColor"
d="M97 850c3 40 34 96 63 96c9 0 11 -9 12 -21c85 66 144 81 245 81c252 0 404 -196 404 -503c0 -323 -289 -574 -425 -574c-199 0 -254 151 -254 166c0 43 38 95 62 95c13 0 74 -153 198 -153c269 0 344 318 344 334c0 189 -15 273 -81 373c-88 133 -245 154 -322 154
c-75 0 -120 -20 -182 -61c0 0 -28 -485 -28 -796c0 -43 -42 -91 -62 -91c-10 0 -12 5 -12 157c0 255 16 401 30 656c-10 -6 -16 -17 -28 -17c-6 0 -10 7 -10 13c0 39 28 56 46 91z" />
  </g>

</svg>
