<?xml version="1.0" standalone="no"?>
<!DOCTYPE svg PUBLIC "-//W3C//DTD SVG 1.1//EN" "http://www.w3.org/Graphics/SVG/1.1/DTD/svg11.dtd" >
<svg xmlns="http://www.w3.org/2000/svg" xmlns:xlink="http://www.w3.org/1999/xlink" version="1.1" viewBox="-10 0 680 2048">
  <g transform="matrix(1 0 0 -1 0 1024)">
   <path fill="currentColor"
d="M396 252c0 0 -2 -99 -4 -163c62 27 155 69 155 99c0 33 -94 52 -151 64zM332 498c-49 -18 -133 -54 -133 -98c0 -27 77 -42 130 -56c0 0 1 95 3 154zM389 639c7 0 12 -5 12 -10s-1 -19 -1 -40v-11c81 20 126 33 210 33c11 0 21 -5 21 -13c0 -33 -29 -73 -60 -73
c-5 0 -8 4 -8 7v11c0 0 -102 -2 -165 -25c0 0 -1 -113 -2 -186c175 -29 218 -59 218 -94c0 -78 -131 -164 -227 -206c-2 -16 -35 -58 -60 -58c-6 0 -8 4 -8 8c0 10 2 15 4 26c-84 -21 -134 -38 -223 -38c-35 0 -48 29 -48 54c0 30 40 64 56 64c7 0 11 -4 11 -9v-18
c0 -14 20 -22 40 -22c41 0 109 12 168 28c0 0 2 121 2 197c-97 22 -196 36 -196 84c0 84 97 160 201 207c0 60 49 84 55 84z" />
  </g>

</svg>
