<?xml version="1.0" standalone="no"?>
<!DOCTYPE svg PUBLIC "-//W3C//DTD SVG 1.1//EN" "http://www.w3.org/Graphics/SVG/1.1/DTD/svg11.dtd" >
<svg xmlns="http://www.w3.org/2000/svg" xmlns:xlink="http://www.w3.org/1999/xlink" version="1.1" viewBox="-10 0 581 2048">
  <g transform="matrix(1 0 0 -1 0 1024)">
   <path fill="currentColor"
d="M115 229c19 0 186 -9 305 -9c48 0 70 8 77 8c12 0 13 -9 13 -17s-7 -36 -27 -63c-25 -34 -59 -36 -127 -36c-114 0 -179 4 -294 9c-7 0 -11 8 -11 15c0 43 41 93 64 93zM119 390c19 0 186 -17 305 -17c48 0 70 16 77 16c8 0 11 -9 11 -17s-8 -35 -28 -62
c-28 -37 -57 -46 -125 -46c-114 0 -180 5 -293 18c-7 1 -7 9 -7 16c0 43 42 92 60 92z" />
  </g>

</svg>
