<?xml version="1.0" standalone="no"?>
<!DOCTYPE svg PUBLIC "-//W3C//DTD SVG 1.1//EN" "http://www.w3.org/Graphics/SVG/1.1/DTD/svg11.dtd" >
<svg xmlns="http://www.w3.org/2000/svg" xmlns:xlink="http://www.w3.org/1999/xlink" version="1.1" viewBox="-10 0 732 2048">
  <g transform="matrix(1 0 0 -1 0 1024)">
   <path fill="currentColor"
d="M415 454c-115 -71 -267 -252.902 -267 -335c0 -10.7705 46.6904 -61 105 -61c152 0 189 76.9883 189 245c0 60 -3 103 -27 151zM661 994c12 0 14 -14 14 -26c0 -18.248 -40.9707 -82 -58 -82c-46.0977 0 -131 -56 -213 -112c54 -132 111 -283.993 111 -354
c0 -329.014 -136.997 -466 -321 -466c-57 0 -118 45.9561 -118 92c0 146.004 179 359 319 476c0 0 -42 121 -76 194c0 0 -134 -103 -199 -200c3 -12 8 -19 8 -32c0 -43 -42.5605 -92 -61 -92c-11.1807 0 -16 15 -16 57c0 82.0977 126 228 245 322c-23 56 -37 54.835 -37 67
c0 42 42.5078 96 59 96c17 0 39 -54 58 -96c111 72 236.906 156 285 156z" />
  </g>

</svg>
