<?xml version="1.0" standalone="no"?>
<!DOCTYPE svg PUBLIC "-//W3C//DTD SVG 1.1//EN" "http://www.w3.org/Graphics/SVG/1.1/DTD/svg11.dtd" >
<svg xmlns="http://www.w3.org/2000/svg" xmlns:xlink="http://www.w3.org/1999/xlink" version="1.1" viewBox="-10 0 878 2048">
  <g transform="matrix(1 0 0 -1 0 1024)">
   <path fill="currentColor"
d="M97 850c3 40 34 96 63 96c9 0 11 -9 12 -21c85 66 144 81 245 81c252 0 404 -196 404 -503c0 -323 -289 -574 -425 -574c-199 0 -254 151 -254 166c0 43 38 95 62 95c13 0 74 -153 198 -153c269 0 344 318 344 334c0 189 -15 273 -81 373c-88 133 -245 154 -322 154
c-75 0 -120 -20 -182 -61c0 0 -7 -119 -14 -277c50 -2 151 -7 287 -7c48 0 57 8 67 8c8 0 10 -11 10 -19c0 -14 -28 -72 -45 -82c-15 -8 -36 -14 -63 -14c-41 0 -77 -1 -111 -1c-17 0 -34 0 -50 1c-33 1 -64 3 -99 5c-6 -137 -10 -287 -10 -410c0 -43 -42 -91 -62 -91
c-10 0 -12 5 -12 157c0 135 4 240 11 346h-9c-8 0 -9 11 -9 19c0 17 10 39 23 57c4 71 9 146 14 234c-10 -6 -16 -17 -28 -17c-6 0 -10 7 -10 13c0 39 28 56 46 91z" />
  </g>

</svg>
