<?xml version="1.0" standalone="no"?>
<!DOCTYPE svg PUBLIC "-//W3C//DTD SVG 1.1//EN" "http://www.w3.org/Graphics/SVG/1.1/DTD/svg11.dtd" >
<svg xmlns="http://www.w3.org/2000/svg" xmlns:xlink="http://www.w3.org/1999/xlink" version="1.1" viewBox="-10 0 215 2048">
  <g transform="matrix(1 0 0 -1 0 1024)">
   <path fill="currentColor"
d="M167 1000c6 0 8 -6 8 -12c0 -37 -15 47 -15 -455c0 -141 2 -133 2 -274c0 -31 -45 -86 -62 -86c-7 0 -10 7 -10 14c0 177 -1 222 -1 361c0 104 2 212 8 344c2 50 39 108 70 108zM50 -38c0 38 52 115 103 115c25 0 42 -19 42 -40c0 -36 -52 -114 -104 -114
c-25 0 -41 18 -41 39z" />
  </g>

</svg>
