<?xml version="1.0" standalone="no"?>
<!DOCTYPE svg PUBLIC "-//W3C//DTD SVG 1.1//EN" "http://www.w3.org/Graphics/SVG/1.1/DTD/svg11.dtd" >
<svg xmlns="http://www.w3.org/2000/svg" xmlns:xlink="http://www.w3.org/1999/xlink" version="1.1" viewBox="-10 0 778 2048">
  <g transform="matrix(1 0 0 -1 0 1024)">
   <path fill="currentColor"
d="M754 988v-7c0 -35 -14 -61 -70 -89c-132 -11 -307 -41 -307 -470c0 -106 11 -232 37 -381c40 4 104 11 168 11c43 0 86 -3 120 -13c1 -4 1 -7 1 -11c0 -34 -38 -76 -65 -83c0 0 -126 10 -206 18c21 -117 30 -220 30 -311c0 -605 -406 -639 -453 -639h-2c-2 4 -3 8 -3 14
c0 20 13 52 47 72c95 11 329 15 329 473c0 104 -12 229 -40 379c0 0 -124 -4 -288 -58c0 0 6 50 40 74c48 22 172 64 232 68c-17 110 -24 208 -24 296c0 647 444 657 454 657z" />
  </g>

</svg>
