<?xml version="1.0" standalone="no"?>
<!DOCTYPE svg PUBLIC "-//W3C//DTD SVG 1.1//EN" "http://www.w3.org/Graphics/SVG/1.1/DTD/svg11.dtd" >
<svg xmlns="http://www.w3.org/2000/svg" xmlns:xlink="http://www.w3.org/1999/xlink" version="1.1" viewBox="-10 0 652 2048">
  <g transform="matrix(1 0 0 -1 0 1024)">
   <path fill="currentColor"
d="M221 694c7 0 12 -7 12 -14v-22c93 24 147 82 303 82c6 0 8 -8 8 -14c0 -36 -44 -97 -62 -97c-17 0 -27 2 -44 2c-78 0 -141 -40 -213 -68c-6 -41 -11 -82 -11 -134c0 -7 1 -12 2 -19c39 12 58 32 99 32c123 0 188 -94 188 -140c0 -175 -217 -348 -322 -348
c-62 0 -115 61 -115 110c0 175 66 210 80 210c8 0 12 -10 12 -18s-7 -24 -16 -44c-3 -20 -4 -37 -4 -54c0 -48 49 -93 103 -93c51 0 188 77 188 153c0 21 -42 114 -175 114c-38 0 -62 -34 -90 -34c-16 0 -24 18 -24 34c0 73 5 141 15 210c-19 -4 -38 -6 -59 -6
c-5 0 -6 7 -6 12c0 34 41 100 61 100c9 0 18 0 27 1c12 25 31 45 43 45z" />
  </g>

</svg>
