<?xml version="1.0" standalone="no"?>
<!DOCTYPE svg PUBLIC "-//W3C//DTD SVG 1.1//EN" "http://www.w3.org/Graphics/SVG/1.1/DTD/svg11.dtd" >
<svg xmlns="http://www.w3.org/2000/svg" xmlns:xlink="http://www.w3.org/1999/xlink" version="1.1" viewBox="-10 0 652 2048">
  <g transform="matrix(1 0 0 -1 0 1024)">
   <path fill="currentColor"
d="M342 694c6 0 9 -6 9 -12c0 -48 -135 -252 -227 -394c69 37 142 75 213 105c27 145 69 231 100 231c8 0 11 -8 11 -16c0 -25 -26 -64 -46 -189c62 22 121 36 173 36c24 0 55 -5 55 -29c0 -38 -40 -102 -68 -102c-9 0 6 18 -44 18c-41 0 -85 -8 -128 -20
c-5 -63 -9 -139 -9 -234c0 -29 6 -66 21 -70c14 18 26 41 44 41c6 0 9 -7 9 -13c0 -39 -51 -140 -109 -140c-39 0 -40 84 -40 141c0 92 6 177 15 251c-146 -57 -275 -150 -299 -150c-8 0 -10 9 -10 17c0 47 78 151 159 275c102 156 129 254 171 254z" />
  </g>

</svg>
