<?xml version="1.0" standalone="no"?>
<!DOCTYPE svg PUBLIC "-//W3C//DTD SVG 1.1//EN" "http://www.w3.org/Graphics/SVG/1.1/DTD/svg11.dtd" >
<svg xmlns="http://www.w3.org/2000/svg" xmlns:xlink="http://www.w3.org/1999/xlink" version="1.1" viewBox="-10 0 1120 2048">
  <g transform="matrix(1 0 0 -1 0 1024)">
   <path fill="currentColor"
d="M1028 985c8 0 10 -10 10 -18c0 -19 -54 -77 -84 -77c-672 0 -807 -229 -807 -479c0 -230 153 -365 381 -365c139 0 227 106 227 233c0 76 -3 114 -24 193c-239 -43 -250 -90 -280 -90c-7 0 -14 5 -14 12c0 16 23 55 54 69c167 76 262 111 439 111c51 0 81 -8 131 -15
c7 -1 10 -7 10 -14c0 -25 -56 -78 -79 -78c-27 0 11 19 -157 20c5 -39 15 -67 15 -106c0 -234 -191 -425 -425 -425c-236 0 -373 190 -373 405c0 275 237 624 976 624z" />
  </g>

</svg>
