<?xml version="1.0" standalone="no"?>
<!DOCTYPE svg PUBLIC "-//W3C//DTD SVG 1.1//EN" "http://www.w3.org/Graphics/SVG/1.1/DTD/svg11.dtd" >
<svg xmlns="http://www.w3.org/2000/svg" xmlns:xlink="http://www.w3.org/1999/xlink" version="1.1" viewBox="-10 0 903 2048">
  <g transform="matrix(1 0 0 -1 0 1024)">
   <path fill="currentColor"
d="M694 205c-76 138 -209 252 -378 252c-106 0 -186 -44 -186 -159c0 -150 134 -264 298 -264c117 0 197 58 266 171zM635 457c-1 5 -1 9 -1 13c0 40 30 62 57 73c38 11 79 23 108 23c15 0 26 -3 32 -11c4 -7 6 -19 6 -35c0 -51 -21 -145 -58 -248c54 -93 69 -280 69 -373
v-34c0 -805 -323 -854 -430 -854c-237 0 -366 164 -366 397c0 272 156 474 412 474c54 0 85 -10 136 -30c1 0 1 -1 1 -2c0 -14 -31 -64 -75 -72c-57 11 -87 29 -145 29c-156 0 -254 -151 -254 -276c0 -208 133 -441 353 -441c244 0 283 304 283 543c0 75 1 143 1 204
c0 128 -15 265 -52 321c-81 -118 -193 -212 -354 -212c-163 0 -314 119 -314 277c0 159 146 327 337 327c136 0 273 -86 361 -208c6 41 14 87 14 115c0 13 -1 21 -6 25c-1 1 -4 2 -7 2c-19 0 -64 -27 -104 -27h-4z" />
  </g>

</svg>
