<?xml version="1.0" standalone="no"?>
<!DOCTYPE svg PUBLIC "-//W3C//DTD SVG 1.1//EN" "http://www.w3.org/Graphics/SVG/1.1/DTD/svg11.dtd" >
<svg xmlns="http://www.w3.org/2000/svg" xmlns:xlink="http://www.w3.org/1999/xlink" version="1.1" viewBox="-10 0 829 2048">
  <g transform="matrix(1 0 0 -1 0 1024)">
   <path fill="currentColor"
d="M626 1008c78 0 157 -28.9531 157 -125c0 -154 -112 -282 -238 -315c50 -53 87 -96 87 -171c0 -248.032 -306.785 -438 -365 -438c-9 0 -11 10 -11 19c0 40 37.975 88 58 88c45.618 0 247 116 247 257c0 134 -170 186.148 -170 225c0 48 47 98 64 98
c41.6237 0 183.201 10.6328 236 94c13.1621 20.7822 16 49.8364 16 80c0 64 -78 80 -142 80c-292.084 0 -443 -823.528 -443 -846c0 -43 -43.28 -91 -61 -91c-8 0 -11 9 -11 17c0 115.278 222.994 1028 576 1028z" />
  </g>

</svg>
