<?xml version="1.0" standalone="no"?>
<!DOCTYPE svg PUBLIC "-//W3C//DTD SVG 1.1//EN" "http://www.w3.org/Graphics/SVG/1.1/DTD/svg11.dtd" >
<svg xmlns="http://www.w3.org/2000/svg" xmlns:xlink="http://www.w3.org/1999/xlink" version="1.1" viewBox="-10 0 546 2048">
  <g transform="matrix(1 0 0 -1 0 1024)">
   <path fill="currentColor"
d="M119 486c18 0 347 -129 347 -174c0 -19 -14 -61 -55 -92c-32 -24 -153 -63 -318 -130c-9 -5 -12 -13 -22 -13c-7 0 -12 7 -12 14c0 13 5 71 75 105c15 7 113 45 185 74c-99 52 -151 74 -252 106c-11 4 -14 7 -14 18c0 48 47 92 66 92z" />
  </g>

</svg>
