<?xml version="1.0" standalone="no"?>
<!DOCTYPE svg PUBLIC "-//W3C//DTD SVG 1.1//EN" "http://www.w3.org/Graphics/SVG/1.1/DTD/svg11.dtd" >
<svg xmlns="http://www.w3.org/2000/svg" xmlns:xlink="http://www.w3.org/1999/xlink" version="1.1" viewBox="-10 0 568 2048">
  <g transform="matrix(1 0 0 -1 0 1024)">
   <path fill="currentColor"
d="M289 484c6 0 10 -7 10 -13c0 -57.0789 -82 -124 -150 -188c49 -34 112 -103 112 -136c0 -24 -33 -94 -65 -94c-11.0454 0 7 17 -59 84c-32.2891 32.7783 -87 55.9168 -87 80c0 56.0357 68.2638 114.502 132 173c73 67 90.5076 94 107 94zM457 482c8 0 12 -10 12 -18
c0 -40.1123 -59 -101 -104 -157c89 -33 157 -69.9815 157 -97c0 -37.054 -40.98 -94 -66 -94c-6.39353 0 -16 30 -83 57c-47.8123 19.2677 -100 33.4723 -100 57c0 60.1332 167.969 252 184 252z" />
  </g>

</svg>
