<?xml version="1.0" standalone="no"?>
<!DOCTYPE svg PUBLIC "-//W3C//DTD SVG 1.1//EN" "http://www.w3.org/Graphics/SVG/1.1/DTD/svg11.dtd" >
<svg xmlns="http://www.w3.org/2000/svg" xmlns:xlink="http://www.w3.org/1999/xlink" version="1.1" viewBox="-10 0 432 2048">
  <g transform="matrix(1 0 0 -1 0 1024)">
   <path fill="currentColor"
d="M265 487c10 0 120 -152 120 -175c0 -47 -149 -259 -173 -259c-9 0 -12 10 -12 19c0 31 60 105 106 171c0 0 -26 37 -42 60c-3 -36 -55 -99 -104 -154c-43 -49 -82 -92 -97 -92c-8 0 -11 9 -11 17c0 11 11 41 29 64c28 36 38 35 98 108c-67 89 -113 132 -113 142
c0 17 29 94 65 94c7 0 45 -49 73 -81c5 32 38 86 61 86z" />
  </g>

</svg>
