<?xml version="1.0" standalone="no"?>
<!DOCTYPE svg PUBLIC "-//W3C//DTD SVG 1.1//EN" "http://www.w3.org/Graphics/SVG/1.1/DTD/svg11.dtd" >
<svg xmlns="http://www.w3.org/2000/svg" xmlns:xlink="http://www.w3.org/1999/xlink" version="1.1" viewBox="-10 0 660 2048">
  <g transform="matrix(1 0 0 -1 0 1024)">
   <path fill="currentColor"
d="M401 368c0 0 -95 -5 -155 -8c0 0 -5 -42 -8 -69c0 0 93 7 153 11c0 0 6 40 10 66zM491 581c9 0 13 -9 13 -18c0 -8 -20 -37 -27 -89c34 1 70 2 98 2c7 0 9 -12 9 -19c0 -20 -39 -89 -57 -89c-24 0 -38 1 -62 1c0 0 -5 -40 -9 -63c48 0 75 -1 123 -1c6 0 10 -7 10 -13
c0 -34 -27 -75 -60 -95c-35 0 -51 -1 -84 -1c-8 -55 -13 -86 -13 -143c0 -31 -40 -88 -62 -88c-7 0 -10 4 -10 11c0 86 12 134 19 219c0 0 -91 -4 -149 -7c1 -13 2 -20 2 -36c0 -38 -46 -93 -64 -93c-8 0 -11 5 -11 13c0 42 4 66 7 108c-31 -6 -49 -7 -79 -15
c-11 -3 -12 -13 -23 -13c-8 0 -10 9 -10 17c0 16 12 93 123 111c0 0 4 46 6 76c-32 -6 -50 -8 -82 -16c-9 -2 -13 -9 -23 -9c-7 0 -8 4 -8 15c0 14 18 104 127 112c6 51 35 128 68 128c7 0 13 -7 13 -14c0 -14 -10 -37 -19 -107c0 0 99 5 163 9c17 48 41 107 71 107z" />
  </g>

</svg>
