<?xml version="1.0" standalone="no"?>
<!DOCTYPE svg PUBLIC "-//W3C//DTD SVG 1.1//EN" "http://www.w3.org/Graphics/SVG/1.1/DTD/svg11.dtd" >
<svg xmlns="http://www.w3.org/2000/svg" xmlns:xlink="http://www.w3.org/1999/xlink" version="1.1" viewBox="-10 0 622 2048">
  <g transform="matrix(1 0 0 -1 0 1024)">
   <path fill="currentColor"
d="M180 700c4.5459 0 6.0918 -8.68262 6.0918 -29c0 -35.3252 -4.15332 -105.821 -4.15332 -227c0 -8.41992 0.0195312 -17.085 0.0615234 -26c20 3 31 8 52 8c19 0 23 -3 23 -13c0 -18 -30.6582 -65 -44 -65c-3 0 -7.29492 2 -19 2c-50 0 -107.971 -25 -125 -25
c-4 0 -6 5 -6 9c0 16 23 61 42 66c10.9414 2.87891 17 4 28 7c0 0 2 120 3 197c-19 -16 -36 -25 -59 -25c-5 0 -9 4 -9 9c0 21 25 66 42 66c15 0 27 3 37 11c8 19 23.9443 35 33 35zM454 313c44 0 92 -23 92 -67c0 -72.1738 -77 -147 -145 -212c37 4 58 10 95 10
c31 0 70 -23.7207 70 -40c0 -22 -27.9668 -64 -43 -64c-6.32422 0 -19.9902 30 -72 30c-67 0 -151.752 -30 -170 -30c-4 0 -6 4 -6 8c0 23.0215 16.0938 41.9121 35 62c16 17 108 75 187 175c-3 41 -44 55 -83 55c-49.041 0 -59.958 -23 -72 -23c-4 0 -8 3 -8 7
c0 19 12.9746 47.0342 36 64c19 14 50 25 84 25zM495 614c10 0 10 -8 10 -18c0 -22 -20 -53 -40 -78c-318 -410 -103 -135 -342 -491c-12 -35 -42 -74 -58 -74c-10 0 -10 13 -10 23c0 21 15.69 52.2014 34 80c247 375 105 190 379 544c7 9 15 14 27 14z" />
  </g>

</svg>
