<?xml version="1.0" standalone="no"?>
<!DOCTYPE svg PUBLIC "-//W3C//DTD SVG 1.1//EN" "http://www.w3.org/Graphics/SVG/1.1/DTD/svg11.dtd" >
<svg xmlns="http://www.w3.org/2000/svg" xmlns:xlink="http://www.w3.org/1999/xlink" version="1.1" viewBox="-10 0 584 2048">
  <g transform="matrix(1 0 0 -1 0 1024)">
   <path fill="currentColor"
d="M495 614c10 0 10 -8 10 -18c0 -22 -20 -53 -40 -78c-318 -410 -103 -135 -342 -491c-12 -35 -42 -74 -58 -74c-10 0 -10 13 -10 23c0 21 16 52 34 80c247 375 105 190 379 544c7 9 15 14 27 14zM377 235c0 0 -35 -53 -57 -85c0 0 33 8 57 10v75zM421 338c5 0 7 -3 7 -16
c0 -18 -3 -51 -3 -105c0 -16 0 -34 1 -54h21c35 0 75 -3 75 -20c0 -21 -29 -66 -45 -66c-4 0 -20 9 -53 9c0 0 -1 -35 -2 -58c-1 -29 -38 -68 -44 -68c-4 0 -6 3 -6 7c0 5 1 13 3 119c-56 -2 -114 -18 -120 -18c-5 0 -6 5 -6 10c0 2 3 15 11 29c21 36 64 97 77 117
c36 57 70 114 84 114zM180 700c5 0 6 -9 6 -29c0 -35 -4 -106 -4 -227v-26c20 3 31 8 52 8c19 0 23 -3 23 -13c0 -18 -31 -65 -44 -65c-3 0 -7 2 -19 2c-50 0 -108 -25 -125 -25c-4 0 -6 5 -6 9c0 16 23 61 42 66c11 3 17 4 28 7c0 0 2 120 3 197c-19 -16 -36 -25 -59 -25
c-5 0 -9 4 -9 9c0 21 25 66 42 66c15 0 27 3 37 11c8 19 24 35 33 35z" />
  </g>

</svg>
