<?xml version="1.0" standalone="no"?>
<!DOCTYPE svg PUBLIC "-//W3C//DTD SVG 1.1//EN" "http://www.w3.org/Graphics/SVG/1.1/DTD/svg11.dtd" >
<svg xmlns="http://www.w3.org/2000/svg" xmlns:xlink="http://www.w3.org/1999/xlink" version="1.1" viewBox="-10 0 563 2048">
  <g transform="matrix(1 0 0 -1 0 1024)">
   <path fill="currentColor"
d="M102 643c19 0 186 -9 305 -9c48 0 70 8 77 8c12 0 13 -9 13 -17s-1 -14 -12 -27c-27 -32 -59 -36 -127 -36c-114 0 -179 4 -294 9c-7 0 -11 8 -11 15c0 43 26 57 49 57zM349 1024c7 0 83 -34 83 -122c0 -41 -16 -90 -41 -133c7 -10 13 -16 18 -16c3 0 9 0 9 -17
c0 -21 -34 -64 -50 -64c-8 0 -19 12 -32 32c-21 -17 -44 -28 -67 -28c-89 0 -168 66 -168 155c0 72 72 167 116 167c53 0 112 -123 153 -195c5 12 7 26 7 39c0 64 -46 95 -66 99c-6 1 -9 6 -9 12c0 17 26 71 47 71zM303 758c-40 70 -88 158 -126 158c-15 0 -22 -9 -22 -41
c0 -41 50 -113 148 -117z" />
  </g>

</svg>
