<?xml version="1.0" standalone="no"?>
<!DOCTYPE svg PUBLIC "-//W3C//DTD SVG 1.1//EN" "http://www.w3.org/Graphics/SVG/1.1/DTD/svg11.dtd" >
<svg xmlns="http://www.w3.org/2000/svg" xmlns:xlink="http://www.w3.org/1999/xlink" version="1.1" viewBox="-10 0 551 2048">
  <g transform="matrix(1 0 0 -1 0 1024)">
   <path fill="currentColor"
d="M104 635c19 0 186 -9 305 -9c48 0 70 8 77 8c12 0 13 -9 13 -17s-1 -14 -12 -27c-27 -32 -59 -36 -127 -36c-114 0 -179 4 -294 9c-7 0 -11 8 -11 15c0 43 26 57 49 57zM271 921c-32 0 -49 -4 -78 -22c0 -6 -1 -7 -1 -13c0 -36 36 -107 132 -107c28 0 46 10 65 29
c1 7 3 11 3 19c0 42 -42 94 -121 94zM318 1021c84 0 142 -51 142 -125c0 -81 -78 -216 -184 -216c-97 0 -150 60 -150 140c0 84 75 201 192 201z" />
  </g>

</svg>
