<?xml version="1.0" standalone="no"?>
<!DOCTYPE svg PUBLIC "-//W3C//DTD SVG 1.1//EN" "http://www.w3.org/Graphics/SVG/1.1/DTD/svg11.dtd" >
<svg xmlns="http://www.w3.org/2000/svg" xmlns:xlink="http://www.w3.org/1999/xlink" version="1.1" viewBox="-10 0 831 2048">
  <g transform="matrix(1 0 0 -1 0 1024)">
   <path fill="currentColor"
d="M49 115c0 184 285 467 516 467c48.533 0 92.7931 -12.6603 128.499 -34.5813c22.0569 18.2338 44.8465 37.0627 68.5006 56.6214c7 5.75977 15 8.95996 27 8.95996c10 0 10 -5.12012 10 -11.5205c0 -14.0801 -19.2447 -52.2183 -39 -68.5195
c-8.24476 -6.80324 -16.3329 -13.4778 -24.2712 -20.0299c29.1066 -31.5142 46.2712 -71.8733 46.2712 -116.93c0 -181 -278 -469 -512 -469c-57.7103 0 -109.917 17.6111 -149.081 47.4623c-0.970613 -0.924955 -1.94377 -1.8525 -2.91949 -2.78266
c-12 -22.3994 -42 -47.3594 -58 -47.3594c-10 0 -11 26.9189 -11 33.3193c0 13.4404 16 33.2803 34 51.2002c0.546853 0.531355 1.09327 1.06217 1.63925 1.59243c-22.5751 29.436 -35.6393 65.1356 -35.6393 104.568zM504 490c-147 0 -371 -144 -371 -304
c0 -37.9577 12.6548 -70.587 33.832 -96.7212c152.66 144.522 276.462 250.462 432.223 379.91c-28.8571 13.3795 -61.579 20.8117 -95.0549 20.8117zM205.427 54.4551c35.4008 -23.5817 80.4812 -36.4551 127.573 -36.4551c171 0 368 168 368 307
c0 45.5632 -21.3998 85.0444 -54.7911 113.953c-194.333 -160.894 -289.585 -242.57 -440.782 -384.498z" />
  </g>

</svg>
