<?xml version="1.0" standalone="no"?>
<!DOCTYPE svg PUBLIC "-//W3C//DTD SVG 1.1//EN" "http://www.w3.org/Graphics/SVG/1.1/DTD/svg11.dtd" >
<svg xmlns="http://www.w3.org/2000/svg" xmlns:xlink="http://www.w3.org/1999/xlink" version="1.1" viewBox="-10 0 919 2048">
  <g transform="matrix(1 0 0 -1 0 1024)">
   <path fill="currentColor"
d="M790 1003c10 0 10 -8 10 -18c0 -13 -7 -29 -17 -45c58 -63 71 -158 71 -255c0 -464 -395 -747 -571 -747c-71 0 -127 35 -166 89c-13 -34 -41 -71 -57 -71c-10 0 -10 13 -10 23c0 21 16 52 34 80c2 3 5 7 7 10c-26 51 -39 112 -39 171c0 465 286 771 531 771
c72 0 125 -15 165 -42c5 7 10 13 15 20c7 9 15 14 27 14zM545 901c-213 0 -418 -178 -418 -578c0 -52 11 -105 32 -151c180 267 319 449 515 701c-33 18 -75 28 -129 28zM712 845c-250 -323 -347 -451 -527 -716c36 -52 89 -86 156 -86c89 0 440 162 440 549
c0 106 -13 198 -69 253z" />
  </g>

</svg>
