<?xml version="1.0" standalone="no"?>
<!DOCTYPE svg PUBLIC "-//W3C//DTD SVG 1.1//EN" "http://www.w3.org/Graphics/SVG/1.1/DTD/svg11.dtd" >
<svg xmlns="http://www.w3.org/2000/svg" xmlns:xlink="http://www.w3.org/1999/xlink" version="1.1" viewBox="-10 0 965 2048">
  <g transform="matrix(1 0 0 -1 0 1024)">
   <path fill="currentColor"
d="M671 469c-138 0 -403 -19 -503 -101c-18 -19 -19 -59 -19 -90c0 -97 24 -113 86 -163c50 -40 122 -73 239 -73c121 0 204 33 298 89c20 65 26 110 26 182c0 63 -16 156 -127 156zM745 563c127 0 146 -107 146 -182c0 -94 -13 -189 -66 -257c-73 -94 -264 -176 -426 -176
c-96 0 -163 22 -237 65c9 -206 23 -322 23 -528c0 -154 -7 -276 -41 -393c-9 -31 -56 -72 -80 -72c-7 0 -12 6 -12 13c0 17 39 34 39 456c0 207 -38 595 -38 734c0 91 73 197 200 256c132 61 310 84 492 84z" />
  </g>

</svg>
