<?xml version="1.0" standalone="no"?>
<!DOCTYPE svg PUBLIC "-//W3C//DTD SVG 1.1//EN" "http://www.w3.org/Graphics/SVG/1.1/DTD/svg11.dtd" >
<svg xmlns="http://www.w3.org/2000/svg" xmlns:xlink="http://www.w3.org/1999/xlink" version="1.1" viewBox="-10 0 651 2048">
  <g transform="matrix(1 0 0 -1 0 1024)">
   <path fill="currentColor"
d="M555 990c12.53 0 19 -34 19 -57c0 -348.337 4.95114 -615.186 4.95114 -888c0 -234.692 -3.54032 -473.8 -16.9511 -773c-2.33014 -51.9863 -30.6544 -116 -67 -116c-11 0 -12 14 -12 25c0 31.7805 27 -5.01927 27 929c0 243.349 -12 710.893 -12 800
c0 25.2982 45 80 57 80zM122 774c0 -113.004 116 -196 206 -204c0 0 -1 189 -2 310c-96 -2 -204 -30.8335 -204 -106zM376 990c13 0 26 -7 26 -20c0 -22.0007 3.26618 -279.872 3.26618 -631c0 -325.992 -2.67453 -732.367 -13.2662 -1105
c-1.36497 -48.0223 -49.5609 -104 -68 -104c-7 0 -10 8 -10 15c0 23.1609 19.4929 24.774 19.4929 641c0 171.698 -1.57049 391.111 -5.49291 672c-133 12 -280 88 -280 229c0 174 154 303 328 303z" />
  </g>

</svg>
