<?xml version="1.0" standalone="no"?>
<!DOCTYPE svg PUBLIC "-//W3C//DTD SVG 1.1//EN" "http://www.w3.org/Graphics/SVG/1.1/DTD/svg11.dtd" >
<svg xmlns="http://www.w3.org/2000/svg" xmlns:xlink="http://www.w3.org/1999/xlink" version="1.1" viewBox="-10 0 335 2048">
  <g transform="matrix(1 0 0 -1 0 1024)">
   <path fill="currentColor"
d="M250 989c10 0 10 -11 10 -19c0 -17 -16 -50 -27 -63c-90 -103 -107 -272 -107 -398c0 -284 99 -411 144 -463c2 -3 3 -8 3 -13c0 -22 -35 -90 -64 -90c-19 0 -157 190 -157 458c0 379 137 528 157 555c17 25 35 33 41 33z" />
  </g>

</svg>
