<?xml version="1.0" standalone="no"?>
<!DOCTYPE svg PUBLIC "-//W3C//DTD SVG 1.1//EN" "http://www.w3.org/Graphics/SVG/1.1/DTD/svg11.dtd" >
<svg xmlns="http://www.w3.org/2000/svg" xmlns:xlink="http://www.w3.org/1999/xlink" version="1.1" viewBox="-10 0 610 2048">
  <g transform="matrix(1 0 0 -1 0 1024)">
   <path fill="currentColor"
d="M123 526c-2 -8 -4 -17 -4 -24c0 -43 35 -64 75 -64c15 0 25 2 36 12c1 3 1 7 1 11c0 40 -37 79 -79 79c-13 0 -23 -4 -29 -14zM184 609c54 0 94 -44 94 -97c0 -15 -15 -144 -130 -144c-50 0 -77 45 -77 80c0 77 56 161 113 161zM390 223c-2 -10 -4 -19 -4 -28
c0 -43 33 -70 76 -70c14 0 21 5 35 11v12c0 44 -28 87 -81 87c-11 0 -17 -4 -26 -12zM451 305c51 0 94 -49 94 -98c0 -29 -16 -152 -133 -152c-32 0 -74 32 -74 89c0 77 60 161 113 161zM539 655c5 0 6 -7 6 -12c0 -15 -10 -32 -23 -49c-105 -128 -386 -506 -426 -579
c-11 -21 -22 -45 -38 -45c-6 0 -6 7 -6 13c0 10 11 34 31 66c83 131 273 384 429 585c11 15 22 21 27 21z" />
  </g>

</svg>
