<?xml version="1.0" standalone="no"?>
<!DOCTYPE svg PUBLIC "-//W3C//DTD SVG 1.1//EN" "http://www.w3.org/Graphics/SVG/1.1/DTD/svg11.dtd" >
<svg xmlns="http://www.w3.org/2000/svg" xmlns:xlink="http://www.w3.org/1999/xlink" version="1.1" viewBox="-10 0 499 2048">
  <g transform="matrix(1 0 0 -1 0 1024)">
   <path fill="currentColor"
d="M259 484c6 0 11 -6 11 -12v-62c0 -31 0 -48 1 -79c37 1 59 2 96 2c29 0 68 -8 68 -30c0 -45 -44 -95 -62 -95c-4 0 -5 4 -9 7c0 0 -1 10 -88 10v-58c0 -5.78341 -0.3502 -11.4476 -1.00172 -16.9701c33.1432 -0.630532 69.608 -1.02994 109.002 -1.02994c48 0 57 8 67 8
c8 0 10 -11 10 -19c0 -14 -28 -72 -45 -82c-15 -8 -36 -14 -63 -14c-41 0 -77 -1 -111 -1c-17 0 -34 0 -50 1c-56 2 -110 7 -181 7c-8 0 -9 11 -9 19c0 36 43 90 61 90c8.10005 0 58.1288 -3.49406 139.927 -6.12802c-0.24808 24.3007 -1.08738 41.4312 -1.92667 69.128
c-55 -2 -86 -6 -141 -6c-6 0 -8 6 -8 12c0 44 43 95 60 95c34 0 86 4 86 4l-1 73s26 85 62 85z" />
  </g>

</svg>
