<?xml version="1.0" standalone="no"?>
<!DOCTYPE svg PUBLIC "-//W3C//DTD SVG 1.1//EN" "http://www.w3.org/Graphics/SVG/1.1/DTD/svg11.dtd" >
<svg xmlns="http://www.w3.org/2000/svg" xmlns:xlink="http://www.w3.org/1999/xlink" version="1.1" viewBox="-10 0 899 2048">
  <g transform="matrix(1 0 0 -1 0 1024)">
   <path fill="currentColor"
d="M686 216c-87 143 -210 252 -381 252c-127 0 -177 -60 -177 -155c0 -157 138 -268 292 -268c123 0 215 71 266 171zM631 469c3 29 -8 54 50 87c35 7 80 31 111 31c14 0 24 -4 31 -16c5 -10 8 -24 8 -42c0 -66 -31 -175 -57 -246c44 -112 52 -168 52 -382
c0 -103 -2 -244 -2 -446c0 -155 -3 -184 -4 -379c0 -12 -40 -70 -71 -70c-2 0 -4 0 -6 1c0 260 2 326 2 694s0 368 -39 466c-71 -103 -193 -214 -351 -214c-166 0 -305 123 -305 282c0 160 140 326 334 326c147 0 257 -95 349 -208c7 59 17 93 17 114c0 12 -3 20 -10 27
c-5 5 -11 7 -17 7c-21 0 -49 -28 -92 -32z" />
  </g>

</svg>
