<?xml version="1.0" standalone="no"?>
<!DOCTYPE svg PUBLIC "-//W3C//DTD SVG 1.1//EN" "http://www.w3.org/Graphics/SVG/1.1/DTD/svg11.dtd" >
<svg xmlns="http://www.w3.org/2000/svg" xmlns:xlink="http://www.w3.org/1999/xlink" version="1.1" viewBox="-10 0 1748 2048">
  <g transform="matrix(1 0 0 -1 0 1024)">
   <path fill="currentColor"
d="M917 41c-102 -66 -234 -107 -379 -107c-323 0 -486 267 -486 415c0 342 141 501 269 556c-79 -11 -94 -42 -112 -42c-10 0 -9 15 -9 25c0 59 119 131 218 131c311 0 706 -336 706 -646c0 -94 -43 -184 -116 -257c114 -131 120 -190 295 -190c239 0 362 173 390 173
c7 0 10 -9 10 -16c0 -107 -251 -273 -460 -273c-154 0 -199 88 -326 231zM969 161c46 33 78 73 78 122c0 279 -270 508 -494 592c25 -20 41 -41 41 -51c0 -47 -30 -98 -69 -98c-17 0 -22 82 -209 82c-56 0 -188 -79 -188 -316c0 -309 245 -450 482 -450c30 0 146 20 252 62
c-93 103 -181 182 -273 182c-22 0 -55 0 -55 15c0 46 39 95 70 95c137 0 252 -108 365 -235z" />
  </g>

</svg>
