<?xml version="1.0" standalone="no"?>
<!DOCTYPE svg PUBLIC "-//W3C//DTD SVG 1.1//EN" "http://www.w3.org/Graphics/SVG/1.1/DTD/svg11.dtd" >
<svg xmlns="http://www.w3.org/2000/svg" xmlns:xlink="http://www.w3.org/1999/xlink" version="1.1" viewBox="-10 0 571 2048">
  <g transform="matrix(1 0 0 -1 0 1024)">
   <path fill="currentColor"
d="M314 980c137 0 199 -97 199 -210c0 -172 -124 -255 -278 -298c0 0 -1 -43 -1 -100c0 -61 0 -80 7 -141c13 -7 23 -10 39 -10c12 0 19 9 31 9c9 0 11 -12 11 -21c0 -4 -11 -95 -108 -95c-18 0 -32 5 -42 19c-9 13 -14 39 -14 138c0 67 3 140 9 202c2 20 21 68 56 88
c16 9 155 34 212 91c2 20 6 32 6 52c0 83 -50 170 -196 170c-52 0 -82 -14 -126 -41c-1 -18 -32 -75 -59 -75c-8 0 -11 8 -11 16c0 30 49 206 265 206zM197 -38c0 38 52 115 103 115c25 0 42 -19 42 -40c0 -36 -52 -114 -104 -114c-25 0 -41 18 -41 39z" />
  </g>

</svg>
