<?xml version="1.0" standalone="no"?>
<!DOCTYPE svg PUBLIC "-//W3C//DTD SVG 1.1//EN" "http://www.w3.org/Graphics/SVG/1.1/DTD/svg11.dtd" >
<svg xmlns="http://www.w3.org/2000/svg" xmlns:xlink="http://www.w3.org/1999/xlink" version="1.1" viewBox="-10 0 339 2048">
  <g transform="matrix(1 0 0 -1 0 1024)">
   <path fill="currentColor"
d="M251 1007c8 0 11 -10 11 -18v-34c0 -65 15 -129 15 -165c0 -24 -34 -93 -57 -93c-11 0 -16 13 -16 24c0 42 -13 92 -13 193c0 43 41 93 60 93zM138 1008c8 0 11 -8 11 -16c0 -55 -22 -112 -22 -185c0 -18 -36 -87 -64 -87c-7 0 -10 8 -10 15c0 43 19 159 24 189
c6 35 40 84 61 84z" />
  </g>

</svg>
