<?xml version="1.0" standalone="no"?>
<!DOCTYPE svg PUBLIC "-//W3C//DTD SVG 1.1//EN" "http://www.w3.org/Graphics/SVG/1.1/DTD/svg11.dtd" >
<svg xmlns="http://www.w3.org/2000/svg" xmlns:xlink="http://www.w3.org/1999/xlink" version="1.1" viewBox="-10 0 1287 2048">
  <g transform="matrix(1 0 0 -1 0 1024)">
   <path fill="currentColor"
d="M185 359c200 -160 418 -435 659 -435c239 0 362 173 390 173c7 0 10 -9 10 -16c0 -107 -251 -273 -460 -273c-243 0 -415 244 -612 401c-1 -55 -1 -115 -1 -180c0 -47 -42 -99 -67 -99c-7 0 -8 8 -8 15c0 122 0 227 3 326c-30 26 -47 35 -47 39c0 1 4 72 50 95
c4 90 9 181 16 282c-21 -28 -36 -47 -42 -47c-9 0 -17 7 -17 16c0 23 24 71 67 125c2 22 4 45 6 69c3 33 42 86 59 86c9 0 16 -6 16 -15c0 -15 -1 -33 -3 -56c88 81 283 152 420 152c75 0 172 -13 172 -88c0 -169 -311 -412 -611 -570zM196 776c-6 -73 -14 -178 -19 -332
c182 99 543 277 543 408c0 27 -43 54 -174 54c-119 0 -284 -64 -350 -130z" />
  </g>

</svg>
