<?xml version="1.0" standalone="no"?>
<!DOCTYPE svg PUBLIC "-//W3C//DTD SVG 1.1//EN" "http://www.w3.org/Graphics/SVG/1.1/DTD/svg11.dtd" >
<svg xmlns="http://www.w3.org/2000/svg" xmlns:xlink="http://www.w3.org/1999/xlink" version="1.1" viewBox="-10 0 622 2048">
  <g transform="matrix(1 0 0 -1 0 1024)">
   <path fill="currentColor"
d="M354 333c0 0 -1 9 -101 10c0 0 1 -29 1 -48c5 3 7 8 13 8c17.1172 0 63 16 87 30zM239 409c19.4997 0 41.8711 0.640625 64 0.640625c57.3105 0 113 -4.20336 113 -34.6406c0 -24.0208 -17 -72 -101 -117c43 -46 84 -81 125 -99c5.86298 -2.57399 15 -2 15 -9
c0 -23 -26.9616 -63 -40 -63c-28.0179 0 -105 73 -164 128c-4 -28 -7.42988 -62.4329 -10 -71c-6 -20 -21.9706 -50 -39 -50c-4 0 -6 4 -6 8c0 20.3961 13 38.9958 13 157c0 60 -6 68 -6 93c0 18 24.9546 57 36 57zM101 270c0 -132 94.9131 -239 239 -239
c90 0 161 76 161 166c0 155.003 -50.9971 273 -237 273c-58.502 0 -118.67 -36.8281 -139 -68c-15 -23 -24 -75.2314 -24 -132zM319 544c175 0 231 -145 231 -290c0 -121 -101.997 -296 -262 -296c-138 0 -236 125 -236 263c0 179.003 104 323 267 323z" />
  </g>

</svg>
