<?xml version="1.0" standalone="no"?>
<!DOCTYPE svg PUBLIC "-//W3C//DTD SVG 1.1//EN" "http://www.w3.org/Graphics/SVG/1.1/DTD/svg11.dtd" >
<svg xmlns="http://www.w3.org/2000/svg" xmlns:xlink="http://www.w3.org/1999/xlink" version="1.1" viewBox="-10 0 438 2048">
  <g transform="matrix(1 0 0 -1 0 1024)">
   <path fill="currentColor"
d="M112 530c4 -82 66.634 -126.385 138 -126.385c13.6748 0 27.4926 1.33011 41 4.38536c0 0 -13 121 -179 122zM391 973c8 0 8 -6 8 -14c0 -12.165 -17.3601 -47.7829 -38 -64c-28 -22 -217 -97 -245 -287c11.1599 0.697492 21.8197 1.03365 32 1.03365
c164.966 0 204 -90.0667 204 -204.034c0 -164.003 -274.796 -456 -297 -456c-7 0 -6 10 -6 17c0 14.3444 9 34 48 70c46.8088 43.2081 193 226 199 298c-34 -5 -56 -14 -91 -14c-90.2718 0 -151 70.9559 -151 173c0 309.015 322.964 480 337 480z" />
  </g>

</svg>
