<?xml version="1.0" standalone="no"?>
<!DOCTYPE svg PUBLIC "-//W3C//DTD SVG 1.1//EN" "http://www.w3.org/Graphics/SVG/1.1/DTD/svg11.dtd" >
<svg xmlns="http://www.w3.org/2000/svg" xmlns:xlink="http://www.w3.org/1999/xlink" version="1.1" viewBox="-10 0 577 2048">
  <g transform="matrix(1 0 0 -1 0 1024)">
   <path fill="currentColor"
d="M420 583c-29 0 -39 -11 -54 -52c13 -4 29 -4 43 -4c10 0 56 6 56 26c0 17 -24 30 -45 30zM451 656c33 0 64 -23 64 -56c0 -29 -21 -67 -34 -84c-43 -57 -77 -61 -134 -61c0 0 -20 -92 -32 -150c62 8 90 18 149 18c11 0 25 0 25 -11c0 -30 -26 -67 -41 -67
c-8 0 -7 6 -19 6c-50 0 -78 -10 -128 -17c0 0 -32 -125 -68 -192c43 -29 91 -62 103 -62h4c6 0 8 -5 8 -10c0 -16 -21 -61 -47 -61c-25 0 -71 39 -117 68c-21 -19 -48 -31 -83 -31c-27 0 -53 41 -53 78c0 45 27 100 62 100c22 0 59 -35 98 -63c0 0 36 77 53 167
c-40 -4 -63 -10 -104 -10c-7 0 -12 6 -12 13c0 25 27 62 39 62c7 0 10 -3 17 -3c29 0 44 4 73 7c0 0 22 99 35 163c-36 10 -84 20 -84 47c0 22 25 60 42 60c7 0 5 -14 68 -32c24 56 56 121 116 121z" />
  </g>

</svg>
