<?xml version="1.0" standalone="no"?>
<!DOCTYPE svg PUBLIC "-//W3C//DTD SVG 1.1//EN" "http://www.w3.org/Graphics/SVG/1.1/DTD/svg11.dtd" >
<svg xmlns="http://www.w3.org/2000/svg" xmlns:xlink="http://www.w3.org/1999/xlink" version="1.1" viewBox="-10 0 1124 2048">
  <g transform="matrix(1 0 0 -1 0 1024)">
   <path fill="currentColor"
d="M984 1018c16 0 74 -16 74 -49c0 -35 -41 -92 -63 -92c-17 0 -14 34 -66 34c-27 0 -230 -53 -448 -115c-4 -43 -9 -91 -11 -130c-7 -172 -14 -387 -14 -637c0 -29 -45 -91 -67 -91c-19 0 15 431 -334 748c-2 2 -3 6 -3 11c0 25 20 79 54 88c131 34 242 63 336 88
c8 20 19 34 33 34c6 0 9 -8 10 -22c384 104 460 133 499 133zM421 778c-78 -22 -156 -45 -227 -67c0 0 132 -164 196 -335c7 159 9 254 31 402z" />
  </g>

</svg>
