<?xml version="1.0" standalone="no"?>
<!DOCTYPE svg PUBLIC "-//W3C//DTD SVG 1.1//EN" "http://www.w3.org/Graphics/SVG/1.1/DTD/svg11.dtd" >
<svg xmlns="http://www.w3.org/2000/svg" xmlns:xlink="http://www.w3.org/1999/xlink" version="1.1" viewBox="-10 0 860 2048">
  <g transform="matrix(1 0 0 -1 0 1024)">
   <path fill="currentColor"
d="M336 451c0 0 -24 -243 -61 -399c306 5 459 114 459 180c0 94.0049 -112 211 -398 219zM241 1007c38.0526 0 101 -124.957 101 -313c0 -50 1 -78 1 -128c216 -13 463 -66.9973 463 -253c0 -236.053 -302 -369 -555 -370c-66 -276 -125 -499.965 -125 -729
c0 -44 15.9722 -98 34 -98c10 0 18 -2 18 -12c0 -39 -36.9258 -96 -64 -96c-41.0117 0 -59 78.9756 -59 160c0 395.021 215 845 215 1396c0 230.009 -46.9445 334 -83 334c-7 0 -8 11 -8 18c0 42 42.9736 91 62 91z" />
  </g>

</svg>
