<?xml version="1.0" standalone="no"?>
<!DOCTYPE svg PUBLIC "-//W3C//DTD SVG 1.1//EN" "http://www.w3.org/Graphics/SVG/1.1/DTD/svg11.dtd" >
<svg xmlns="http://www.w3.org/2000/svg" xmlns:xlink="http://www.w3.org/1999/xlink" version="1.1" viewBox="-10 0 635 2048">
  <g transform="matrix(1 0 0 -1 0 1024)">
   <path fill="currentColor"
d="M495 614c10 0 10 -8 10 -18c0 -22 -20 -53 -40 -78c-318 -410 -103 -135 -342 -491c-12 -35 -42 -74 -58 -74c-10 0 -10 13 -10 23c0 21 15.69 52.2014 34 80c247 375 105 190 379 544c7 9 15 14 27 14zM378 224c0 0 -35 -53 -57 -85c0 0 33 8 57 10v75zM422 327
c4.94141 0 7 -3.33105 7 -16c0 -17.6719 -3.05664 -50.7695 -3.05664 -103c0 -16.6758 0.272461 -35.3027 1.05664 -56c6.47168 0.174805 13.6162 0.328125 21 0.328125c34.834 0 75 -2.98145 75 -20.3281c0 -21.0234 -28.875 -66 -45 -66c-4 0 -20 9 -53 9
c0 0 -1.20703 -34.9961 -2 -58c-1 -29 -37.6758 -68 -44 -68c-4 0 -6 3 -6 7c0 5.09863 1 13 3 119c-56 -2 -113.676 -18 -120 -18c-5 0 -6 5 -6 10c0 1.83301 2.71582 14.874 11 29c21.3311 36.373 64.0352 96.832 77 117c36.3955 56.6162 69.9307 114 84 114zM211 659
c35 0 65 -27 65 -62c0 -34.0586 -26 -69 -67 -100c28 -12 64 -26 64 -52c0 -53.1504 -83.9688 -165 -148 -165c-33 0 -74 21.9746 -74 42c0 32 29 68 44 68c10.0498 0 2.99219 -35 67 -35c27 0 47 20 60 35c-33 30 -71 38 -115 50c-4.31445 1.17676 -9 3 -9 8
c0 23 16.9746 44.9746 37 65c8 8 38 14 84 46c-11 19 -26 25 -46 25c-64.0078 0 -87.0557 -31 -96 -31c-4 0 -6 5 -6 9c0 15.0332 21 55 32 62c36.9766 23.5312 64 35 108 35z" />
  </g>

</svg>
