<?xml version="1.0" standalone="no"?>
<!DOCTYPE svg PUBLIC "-//W3C//DTD SVG 1.1//EN" "http://www.w3.org/Graphics/SVG/1.1/DTD/svg11.dtd" >
<svg xmlns="http://www.w3.org/2000/svg" xmlns:xlink="http://www.w3.org/1999/xlink" version="1.1" viewBox="-10 0 654 2048">
  <g transform="matrix(1 0 0 -1 0 1024)">
   <path fill="currentColor"
d="M324 673c46 0 110 -11 110 -41c0 -85 -62 -162 -126 -248c73 -70 186 -141 186 -180c0 -103 -114 -284 -238 -284c-50 0 -114 66 -114 82c0 35 40 103 68 103c8 0 32 -71 109 -71c50 0 97 42 99 82c-72 84 -201 166 -201 194c0 73 123 168 142 228c-22 19 -61 24 -101 24
c-90 0 -128 -49 -145 -49c-7 0 -10 8 -10 15c0 76 99 145 221 145z" />
  </g>

</svg>
