<?xml version="1.0" standalone="no"?>
<!DOCTYPE svg PUBLIC "-//W3C//DTD SVG 1.1//EN" "http://www.w3.org/Graphics/SVG/1.1/DTD/svg11.dtd" >
<svg xmlns="http://www.w3.org/2000/svg" xmlns:xlink="http://www.w3.org/1999/xlink" version="1.1" viewBox="-10 0 790 2048">
  <g transform="matrix(1 0 0 -1 0 1024)">
   <path fill="currentColor"
d="M714 554c7 -38 10 -64 10 -94c0 -268 -248 -506 -530 -506c-124 0 -142 46 -142 209c0 250 42 394 119 394h2c-25 -67 -41 -194 -41 -327c0 -129 15 -186 142 -186c174 0 372 106 372 335c0 43 -7 65 -11 104v1c0 8 31 65 79 70z" />
  </g>

</svg>
