<?xml version="1.0" standalone="no"?>
<!DOCTYPE svg PUBLIC "-//W3C//DTD SVG 1.1//EN" "http://www.w3.org/Graphics/SVG/1.1/DTD/svg11.dtd" >
<svg xmlns="http://www.w3.org/2000/svg" xmlns:xlink="http://www.w3.org/1999/xlink" version="1.1" viewBox="-10 0 1413 2048">
  <g transform="matrix(1 0 0 -1 0 1024)">
   <path fill="currentColor"
d="M863 1016c9 0 9 -4 9 -13c0 -63 -81 -108 -399 -486c90 -280 242 -591 483 -591c239 0 362 173 390 173c7 0 10 -9 10 -16c0 -107 -251 -273 -460 -273c-243 0 -407 323 -502 612c-319 -390 -279 -444 -331 -444c-7 0 -11 8 -11 15c0 66 151 277 323 490
c-58 188 -85 349 -85 378c0 25 30 98 68 98c7 0 35 -174 96 -380c191 230 384 437 409 437z" />
  </g>

</svg>
