<?xml version="1.0" standalone="no"?>
<!DOCTYPE svg PUBLIC "-//W3C//DTD SVG 1.1//EN" "http://www.w3.org/Graphics/SVG/1.1/DTD/svg11.dtd" >
<svg xmlns="http://www.w3.org/2000/svg" xmlns:xlink="http://www.w3.org/1999/xlink" version="1.1" viewBox="-10 0 884 2048">
  <g transform="matrix(1 0 0 -1 0 1024)">
   <path fill="currentColor"
d="M128 490c60 -89 118 -170 238 -251c111 84 347 255 433 321c-2 -60 -16 -63 -25 -70c-142 -113 -223 -170 -366 -278c101 -64 251 -99 400 -107c-1 -51 -28 -68 -63 -89h-20c-144 0 -261 22 -418 122c-92 -68 -159 -111 -260 -182c-14 -12 -13 32 14 56
c72 52 125 94 205 154c-48 42 -153 113 -213 238c1 49 36 86 73 86h2z" />
  </g>

</svg>
