<?xml version="1.0" standalone="no"?>
<!DOCTYPE svg PUBLIC "-//W3C//DTD SVG 1.1//EN" "http://www.w3.org/Graphics/SVG/1.1/DTD/svg11.dtd" >
<svg xmlns="http://www.w3.org/2000/svg" xmlns:xlink="http://www.w3.org/1999/xlink" version="1.1" viewBox="-10 0 908 2048">
  <g transform="matrix(1 0 0 -1 0 1024)">
   <path fill="currentColor"
d="M834 549c0 -20 1 -46 1 -75c0 -172 -7 -464 -7 -464c0 -937 -147 -1005 -409 -1005c-239 0 -374 223 -374 451c0 237 173 448 410 448c62 0 96 -18 157 -30c0 -1 1 -2 1 -3c0 -14 -35 -67 -82 -71c-55 12 -84 30 -140 30c-162 0 -262 -161 -262 -324
c0 -214 131 -419 356 -419c267 0 275 302 275 551v47c0 208 -4 325 -6 533c-58 -107 -316 -276 -550 -276c-142 0 -151 63 -151 170c0 158 19 283 56 375c1 10 40 71 68 71c4 0 8 -1 12 -5c-35 -145 -57 -225 -57 -349c0 -143 29 -169 135 -169c172 0 304 68 371 119
c94 74 120 164 120 262c0 19 -1 38 -1 62v1c0 14 35 72 67 72c3 0 7 -1 10 -2z" />
  </g>

</svg>
