<?xml version="1.0" standalone="no"?>
<!DOCTYPE svg PUBLIC "-//W3C//DTD SVG 1.1//EN" "http://www.w3.org/Graphics/SVG/1.1/DTD/svg11.dtd" >
<svg xmlns="http://www.w3.org/2000/svg" xmlns:xlink="http://www.w3.org/1999/xlink" version="1.1" viewBox="-10 0 1424 2048">
  <g transform="matrix(1 0 0 -1 0 1024)">
   <path fill="currentColor"
d="M896 -190c-243 0 -473 258 -606 258c-132 0 -173 -122 -205 -122c-7 0 -10 9 -10 16c0 120 357 585 645 943c-161 -7 -502 -130 -616 -130c-22 0 -51 -1 -51 21c0 35 45 96 62 96c14 0 20 -7 34 -7c151 0 476 131 608 131c24 0 54 -5 54 -29c0 -102 -407 -498 -609 -856
c54 41 90 47 152 47c121 0 361 -252 602 -252c239 0 362 173 390 173c7 0 10 -9 10 -16c0 -107 -251 -273 -460 -273z" />
  </g>

</svg>
