<?xml version="1.0" standalone="no"?>
<!DOCTYPE svg PUBLIC "-//W3C//DTD SVG 1.1//EN" "http://www.w3.org/Graphics/SVG/1.1/DTD/svg11.dtd" >
<svg xmlns="http://www.w3.org/2000/svg" xmlns:xlink="http://www.w3.org/1999/xlink" version="1.1" viewBox="-10 0 893 2048">
  <g transform="matrix(1 0 0 -1 0 1024)">
   <path fill="currentColor"
d="M57 464c-2 0 -3 3 -3 7c0 17 17 61 68 83c128 2 200 4 328 4c152 0 372 -2 372 -117c0 -99 -172 -230 -342 -359c64 2 109 6 163 6c47 0 160 -3 169 -32c11 -82 19 -210 19 -210c0 -788 -330 -826 -420 -826c-225 0 -365 239 -365 440c0 208 162 452 397 452
c61 0 93 -19 151 -31c1 0 2 -2 2 -4c0 -15 -25 -57 -75 -70c-56 11 -86 27 -143 27c-152 0 -251 -141 -251 -300c0 -215 144 -437 347 -437c268 0 274 385 274 610c0 92 -7 208 -11 261c-42 22 -97 32 -179 32c-96 0 -177 -14 -290 -23c0 0 -70 -31 -146 -31
c-22 0 -45 3 -67 10c-2 0 -3 2 -3 7c0 13 11 45 60 79c0 0 131 13 215 22c200 80 417 260 417 326c0 91 -404 68 -687 74z" />
  </g>

</svg>
