<?xml version="1.0" encoding="UTF-8" standalone="no"?>
<!-- Created with Inkscape (http://www.inkscape.org/) -->

<svg
   width="328.75537"
   height="384.60666"
   viewBox="0 0 328.75537 384.60666"
   version="1.1"
   id="svg5"
   xml:space="preserve"
   xmlns="http://www.w3.org/2000/svg"
   xmlns:svg="http://www.w3.org/2000/svg"><defs
     id="defs2" /><g
     style="display:inline"
     id="g2065"
     transform="translate(-245.39197,-702.01663)"><g
       id="use6008"
       transform="matrix(0.32513731,0.32513731,-0.78120995,0.78120995,1057.5989,52.10815)"
       style="display:inline"><path
         style="display:inline;fill:none;stroke:#000000;stroke-width:91.1971;stroke-linecap:round;stroke-linejoin:round"
         d="M 125.9911,1042.7251 C 180.12611,1005.7804 468.65313,866.49 526.09714,887.20002"
         id="path84984" /></g><path
       id="use6011"
       style="display:inline;fill:none;stroke:#000000;stroke-width:65;stroke-linecap:round;stroke-linejoin:round"
       d="m 411.83408,1033.9677 a 15.181935,37.715626 41.0389 0 1 -36.19013,18.5004 15.181935,37.715626 41.0389 0 1 13.18407,-38.3171 15.181935,37.715626 41.0389 0 1 36.24539,-18.66094 15.181935,37.715626 41.0389 0 1 -13.03218,38.23894 l -11.65834,-9.7293 z" /><path
       id="use6014"
       style="display:inline;fill:none;stroke:#000000;stroke-width:65;stroke-linecap:round;stroke-linejoin:round"
       d="m 425.83742,774.60755 a 15.181935,37.715626 41.0389 0 1 -36.19013,18.5004 15.181935,37.715626 41.0389 0 1 13.18407,-38.3171 15.181935,37.715626 41.0389 0 1 36.24539,-18.6609 15.181935,37.715626 41.0389 0 1 -13.03218,38.2389 l -11.65834,-9.7293 z" /></g></svg>
