<?xml version="1.0" encoding="UTF-8" standalone="no"?>
<!-- Created with Inkscape (http://www.inkscape.org/) -->

<svg
   width="864.51141"
   height="911.12341"
   viewBox="0 0 864.51141 911.12341"
   version="1.1"
   id="svg5"
   xml:space="preserve"
   xmlns="http://www.w3.org/2000/svg"
   xmlns:svg="http://www.w3.org/2000/svg"><defs
     id="defs2" /><g
     style="display:inline"
     id="g2049"
     transform="translate(-240.07932,-316.10191)"><g
       id="g4559"
       transform="matrix(0.34673539,0.34673539,-0.72410612,0.72410612,1049.7821,22.678179)"><path
         style="fill:none;stroke:#000000;stroke-width:70.5594;stroke-linecap:round;stroke-linejoin:round;stroke-dasharray:none"
         d="M 157.52101,1073.5944 C 260.7052,871.32422 529.84336,736.06106 1006.0492,554.42462"
         id="path4548" /><path
         style="fill:none;stroke:#000000;stroke-width:70.5594;stroke-linecap:round;stroke-linejoin:round;stroke-dasharray:none"
         d="M 47.455175,534.31866 C 126.964,358.98349 470.33867,278.52584 559.84716,231.50505"
         id="path4550" /><path
         style="fill:none;stroke:#000000;stroke-width:70.5594;stroke-linecap:round;stroke-linejoin:round;stroke-dasharray:none"
         d="m 1123.6915,1074.3553 c 27.3747,-88.87225 343.4004,-202.55684 450.432,-233.5569"
         id="path4554" /></g><g
       id="g4544"
       transform="matrix(0.34555188,0.34555188,-0.73035461,0.73035461,957.8714,34.099276)"
       style="display:inline"><path
         style="fill:none;stroke:#000000;stroke-width:91.5284;stroke-linecap:round;stroke-linejoin:round;stroke-dasharray:none"
         d="M 650.57155,1239.9757 C 628.02048,1197.5741 352.12129,1028.9988 200.30534,952.94849 -307.83844,698.40012 -205.31209,536.67095 -121.13727,494.20658 c 274.50367,-138.48116 554.03198,90.78235 764.5381,203.37466 87.88622,47.00724 490.97677,249.70383 600.60457,296.84164"
         id="path4542" /></g></g></svg>
