<?xml version="1.0" encoding="UTF-8" standalone="no"?>
<!-- Created with Inkscape (http://www.inkscape.org/) -->

<svg
   width="668.65552"
   height="890.0448"
   viewBox="0 0 668.65552 890.0448"
   version="1.1"
   id="svg5"
   xml:space="preserve"
   xmlns="http://www.w3.org/2000/svg"
   xmlns:svg="http://www.w3.org/2000/svg"><defs
     id="defs2" /><g
     style="display:inline"
     id="g508"
     transform="translate(-241.96052,-311.48026)"><g
       id="use847-6"
       transform="matrix(0.34124426,0.34124426,-0.73820527,0.73820527,773.53096,87.492753)"
       style="display:inline"><path
         style="fill:none;stroke:#000000;stroke-width:91.5765;stroke-linecap:round;stroke-linejoin:round"
         d="m 853.43834,1062.214 c 18.62624,-10.13 5.2665,-40.6015 -19.1575,-55.4496 C 799.73444,985.76254 -133.0764,586.55253 -231.73933,467.22654"
         id="path155861" /></g><g
       id="use971-6"
       transform="matrix(0.34555188,0.34555188,-0.73035461,0.73035461,939.75849,45.364773)"
       style="display:inline"><path
         style="fill:none;stroke:#000000;stroke-width:91.5284;stroke-linecap:round;stroke-linejoin:round;stroke-dasharray:none"
         d="M 211.50037,957.81569 C 256.26153,778.28293 601.66963,616.27579 730.07581,595.58182"
         id="path155853" /></g><g
       id="use1031-2"
       transform="matrix(0.3320681,0.3320681,-0.75595244,0.75595244,716.55639,-96.48817)"
       style="display:inline"><path
         style="fill:none;stroke:#000000;stroke-width:91.7355;stroke-linecap:round;stroke-linejoin:round"
         d="M 266.08134,588.58169 C 450.8371,366.64889 774.83307,250.2129 912.4608,194.20686"
         id="path155841" /></g><g
       id="use754-6"
       transform="matrix(0.32046864,0.32046864,-0.77482018,0.77482018,1175.2423,105.63218)"
       style="display:inline"><path
         style="fill:none;stroke:#000000;stroke-width:92.237;stroke-linecap:round;stroke-linejoin:round"
         d="M 253.70825,1259.5412 C 339.19689,1162.9161 533.42204,1025.907 800.81029,915.3141"
         id="path155877" /></g></g></svg>
