<?xml version="1.0" encoding="UTF-8" standalone="no"?>
<!-- Created with Inkscape (http://www.inkscape.org/) -->

<svg
   width="462.68777"
   height="628.76294"
   viewBox="0 0 462.68777 628.76294"
   version="1.1"
   id="svg5"
   xml:space="preserve"
   xmlns="http://www.w3.org/2000/svg"
   xmlns:svg="http://www.w3.org/2000/svg"><defs
     id="defs2" /><g
     style="display:inline"
     id="g2043"
     transform="translate(-261.44565,-572.33046)"><g
       id="use3836"
       transform="matrix(0.31468248,0.31468248,-0.73614334,0.73614334,998.45419,107.55395)"
       style="display:inline"><path
         style="fill:none;stroke:#000000;stroke-width:73.4577;stroke-linecap:round;stroke-linejoin:round;stroke-dasharray:none"
         d="M 573.61419,1200.3486 C 498.00685,1168.0284 341.55387,705.04686 332.19705,629.09968"
         id="path66725" /></g><g
       id="use3839"
       transform="matrix(0.33002769,0.33002769,-0.77379805,0.77379805,629.12441,233.16977)"
       style="display:inline"><path
         id="path66733"
         style="fill:none;stroke:#000000;stroke-width:69.9627;stroke-linecap:round;stroke-linejoin:round;stroke-dasharray:none"
         d="m 441.05915,625.24433 c 18.15832,-24.33135 107.1831,-79.44003 161.12686,-86.61318 M 115.49293,486.38858 c 33.22318,-15.46579 31.61116,-72.79573 31.61116,-72.79573 l 348.07322,162.82608" /></g><g
       id="use3842"
       transform="matrix(0.33481349,0.33481349,-0.76067634,0.76067634,868.35918,497.9144)"
       style="display:inline"><path
         style="fill:none;stroke:#000000;stroke-width:70.0576;stroke-linecap:round;stroke-linejoin:round;stroke-dasharray:none"
         d="m 110.469,472.29133 c -15.164393,-41.1266 134.58403,-107.52811 228.09738,-68.55267 68.90992,28.72098 64.41796,249.57652 64.41796,249.57652 73.71575,-59.13605 161.30449,-122.23686 272.39549,-128.17135"
         id="path66857" /></g></g></svg>
