<?xml version="1.0" encoding="UTF-8" standalone="no"?>
<!-- Created with Inkscape (http://www.inkscape.org/) -->

<svg
   width="441.90564"
   height="628.76294"
   viewBox="0 0 441.90564 628.76294"
   version="1.1"
   id="svg5"
   xml:space="preserve"
   xmlns="http://www.w3.org/2000/svg"
   xmlns:svg="http://www.w3.org/2000/svg"><defs
     id="defs2" /><g
     style="display:inline"
     id="g2041"
     transform="translate(-261.44565,-572.33046)"><g
       id="use3807"
       transform="matrix(0.33002769,0.33002769,-0.77379805,0.77379805,629.12441,233.16977)"
       style="display:inline"><path
         id="path65075"
         style="fill:none;stroke:#000000;stroke-width:69.9627;stroke-linecap:round;stroke-linejoin:round;stroke-dasharray:none"
         d="m 441.05915,625.24433 c 18.15832,-24.33135 107.1831,-79.44003 161.12686,-86.61318 M 115.49293,486.38858 c 33.22318,-15.46579 31.61116,-72.79573 31.61116,-72.79573 l 348.07322,162.82608" /></g><g
       id="use3820"
       transform="matrix(0.31468248,0.31468248,-0.73614334,0.73614334,998.45419,107.55395)"
       style="display:inline"><path
         style="fill:none;stroke:#000000;stroke-width:73.4577;stroke-linecap:round;stroke-linejoin:round;stroke-dasharray:none"
         d="M 573.61419,1200.3486 C 498.00685,1168.0284 341.55387,705.04686 332.19705,629.09968"
         id="path65067" /></g><g
       id="use3830"
       transform="matrix(0.32494452,0.32494452,-0.79670096,0.79670096,1210.2896,31.495351)"
       style="display:inline"><path
         style="fill:none;stroke:#000000;stroke-width:69.4871;stroke-linecap:round;stroke-linejoin:round;stroke-dasharray:none"
         d="M 732.35759,1078.5093 C 692.73122,1062.3472 355.69502,924.82757 355.69502,924.82757 l 104.54449,184.60883 c 40.8632,-33.942 268.3547,-123.87345 308.5739,-122.04705"
         id="path65059" /></g></g></svg>
