<?xml version="1.0" encoding="UTF-8" standalone="no"?>
<!-- Created with Inkscape (http://www.inkscape.org/) -->

<svg
   width="636.10669"
   height="884.00922"
   viewBox="0 0 636.10669 884.00922"
   version="1.1"
   id="svg5"
   xml:space="preserve"
   xmlns="http://www.w3.org/2000/svg"
   xmlns:svg="http://www.w3.org/2000/svg"><defs
     id="defs2" /><g
     style="display:inline"
     id="g534"
     transform="translate(-243.39212,-316.08427)"><g
       id="use1009"
       transform="matrix(0.34124426,0.34124426,-0.73820527,0.73820527,773.53099,87.492722)"
       style="display:inline"><path
         style="fill:none;stroke:#000000;stroke-width:91.5765;stroke-linecap:round;stroke-linejoin:round"
         d="m 853.43834,1062.214 c 18.62624,-10.13 5.2665,-40.6015 -19.1575,-55.4496 C 799.73444,985.76254 -133.0764,586.55253 -231.73933,467.22654"
         id="path177351" /></g><g
       id="g1014"
       transform="matrix(0.34730134,0.34730134,-0.72454835,0.72454835,877.02053,-22.932354)"
       style="display:inline"><path
         style="fill:none;stroke:#000000;stroke-width:91.6246;stroke-linecap:round;stroke-linejoin:round"
         d="m 1589.3778,809.22723 c 0,0 55.598,38.86759 -161.8091,143.07844 -185.9622,89.13813 -673.99895,24.47072 -1097.64986,-18.59887"
         id="path1012" /></g><g
       id="use1030"
       transform="matrix(0.33615786,0.33615786,-0.74726196,0.74726196,754.00305,-57.14386)"
       style="display:inline"><path
         style="fill:none;stroke:#000000;stroke-width:91.7065;stroke-linecap:round;stroke-linejoin:round"
         d="M -0.08897908,614.12963 C 109.40913,430.71224 551.36246,330.53242 738.83097,414.47481 997.3207,530.21823 805.53215,743.8651 574.71733,845.90514"
         id="path177375" /></g></g></svg>
