<?xml version="1.0" encoding="UTF-8" standalone="no"?>
<!-- Created with Inkscape (http://www.inkscape.org/) -->

<svg
   width="450.2406"
   height="600.30859"
   viewBox="0 0 450.2406 600.30859"
   version="1.1"
   id="svg5"
   xml:space="preserve"
   xmlns="http://www.w3.org/2000/svg"
   xmlns:svg="http://www.w3.org/2000/svg"><defs
     id="defs2" /><g
     style="display:inline"
     id="g1595"
     transform="translate(-243.23701,-596.81743)"><g
       id="g1653"
       transform="matrix(0.34042159,0.34042159,-0.74591719,0.74591719,953.16576,45.668019)"><path
         id="path1649"
         style="fill:none;stroke:#000000;stroke-width:91.2104;stroke-linecap:round;stroke-linejoin:round;stroke-dasharray:none"
         d="m -118.88606,847.36546 c 118.25702392,25.81829 588.93474,16.24408 588.93474,16.24408 M 428.08867,593.64726 c 71.61264,123.17975 -30.20565,230.54445 41.96001,269.96228 72.16569,39.41782 455.41393,207.57856 455.41393,207.57856" /></g><g
       id="use1655"
       style="display:inline"
       transform="translate(73.769808,106.01085)"><g
         id="g28842"
         transform="matrix(0.32513731,0.32513731,-0.78120995,0.78120995,1039.6083,-23.981207)"
         style="display:inline"><path
           style="display:inline;fill:none;stroke:#000000;stroke-width:91.1971;stroke-linecap:round;stroke-linejoin:round"
           d="M 125.9911,1042.7251 C 180.12611,1005.7804 468.65313,866.49 526.09714,887.20002"
           id="path28840" /></g><g
         id="g28846"
         transform="matrix(0.32513731,0.32513731,-0.78120995,0.78120995,1039.6083,112.1563)"
         style="display:inline"><path
           style="display:inline;fill:none;stroke:#000000;stroke-width:91.1971;stroke-linecap:round;stroke-linejoin:round"
           d="M 125.9911,1042.7251 C 180.12611,1005.7804 468.65313,866.49 526.09714,887.20002"
           id="path28844" /></g></g></g></svg>
