<?xml version="1.0" encoding="UTF-8" standalone="no"?>
<!-- Created with Inkscape (http://www.inkscape.org/) -->

<svg
   width="671.0528"
   height="891.58429"
   viewBox="0 0 671.0528 891.58429"
   version="1.1"
   id="svg5"
   xml:space="preserve"
   xmlns="http://www.w3.org/2000/svg"
   xmlns:svg="http://www.w3.org/2000/svg"><defs
     id="defs2" /><g
     style="display:inline"
     id="g2051"
     transform="translate(-242.04577,-308.50915)"><g
       id="use4580"
       style="display:inline"><g
         id="use73337"
         transform="matrix(0.34124426,0.34124426,-0.73820527,0.73820527,773.53099,87.492722)"
         style="display:inline"><path
           style="fill:none;stroke:#000000;stroke-width:91.5765;stroke-linecap:round;stroke-linejoin:round"
           d="m 853.43834,1062.214 c 18.62624,-10.13 5.2665,-40.6015 -19.1575,-55.4496 C 799.73444,985.76254 -133.0764,586.55253 -231.73933,467.22654"
           id="path73401" /></g><g
         id="g73341"
         transform="matrix(0.34471749,0.34471749,-0.73382361,0.73382361,923.90187,-9.9379697)"><path
           style="fill:none;stroke:#000000;stroke-width:91.4335;stroke-linecap:round;stroke-linejoin:round"
           d="M -222.34819,772.80019 C -286.60575,445.42555 462.42555,282.13085 1021.8097,545.2322 c 466.7166,219.51603 272.3892,446.45026 120.329,514.2853 -205.85086,91.8314 -428.11564,45.8648 -428.11564,45.8648"
           id="path73339" /></g></g><g
       id="use4583"
       transform="matrix(0.32513731,0.32513731,-0.78120995,0.78120995,1054.2527,-111.54653)"
       style="display:inline"><path
         style="display:inline;fill:none;stroke:#000000;stroke-width:91.1971;stroke-linecap:round;stroke-linejoin:round"
         d="M 125.9911,1042.7251 C 180.12611,1005.7804 468.65313,866.49 526.09714,887.20002"
         id="path73429" /></g></g></svg>
