<?xml version="1.0" encoding="UTF-8" standalone="no"?>
<!-- Created with Inkscape (http://www.inkscape.org/) -->

<svg
   width="920.23395"
   height="527.36591"
   viewBox="0 0 920.23395 527.36591"
   version="1.1"
   id="svg5"
   xml:space="preserve"
   xmlns="http://www.w3.org/2000/svg"
   xmlns:svg="http://www.w3.org/2000/svg"><defs
     id="defs2" /><g
     style="display:inline"
     id="g2061"
     transform="translate(-243.37397,-672.9349)"><g
       id="g5995"
       transform="matrix(0.34132916,0.34132916,-0.73882038,0.73882038,1333.8468,56.100264)"
       style="display:inline"><path
         style="fill:none;stroke:#000000;stroke-width:91.5542;stroke-linecap:round;stroke-linejoin:round;stroke-dasharray:none"
         d="m 1161.8314,830.99325 c -13.3262,88.7725 -54.1359,161.33008 -217.55917,230.51225 -179.00651,75.779 -407.0064,62.4266 -573.09157,-14.3497 C 94.218116,919.12435 365.53615,685.68056 684.40617,610.48236 791.35935,585.2599 1002.7647,956.92411 245.93996,1026.5227 c -203.092279,18.6766 -414.18998,-17.7072 -539.89993,40.3698 -194.23266,89.734 -80.21239,185.7813 40.58273,241.5877 103.75459,47.9338 365.58573,137.3957 539.57518,57.4562 262.64839,-120.674 178.67237,-276.9439 111.8055,-313.5262 C 331.13656,1015.8279 80.385955,862.55715 57.478992,860.99147 34.57203,859.4258 10.512307,925.43421 10.757082,936.44646"
         id="path5993" /></g></g></svg>
