<?xml version="1.0" encoding="UTF-8" standalone="no"?>
<!-- Created with Inkscape (http://www.inkscape.org/) -->

<svg
   width="120.79672"
   height="465.71689"
   viewBox="0 0 120.79672 465.71689"
   version="1.1"
   id="svg5"
   xml:space="preserve"
   xmlns="http://www.w3.org/2000/svg"
   xmlns:svg="http://www.w3.org/2000/svg"><defs
     id="defs2" /><g
     style="display:inline"
     id="g947"
     transform="translate(-218.84768,-759.87631)"><path
       id="use4009"
       style="display:inline;fill:none;stroke:#000000;stroke-width:65;stroke-linecap:round;stroke-linejoin:round"
       d="m 290.09636,1172.9376 a 15.181935,37.715626 41.0389 0 1 -36.19013,18.5004 15.181935,37.715626 41.0389 0 1 13.18407,-38.3171 15.181935,37.715626 41.0389 0 1 36.24539,-18.6609 15.181935,37.715626 41.0389 0 1 -13.03218,38.2389 l -11.65834,-9.7293 z" /><path
       id="use4813"
       style="display:inline;fill:none;stroke:#000000;stroke-width:65;stroke-linecap:round;stroke-linejoin:round"
       d="m 291.29622,832.46723 a 15.181935,37.715626 41.0389 0 1 -36.19013,18.5004 15.181935,37.715626 41.0389 0 1 13.18407,-38.3171 15.181935,37.715626 41.0389 0 1 36.24539,-18.6609 15.181935,37.715626 41.0389 0 1 -13.03218,38.2389 l -11.65834,-9.7293 z" /></g></svg>
