<?xml version="1.0" encoding="UTF-8" standalone="no"?>
<!-- Created with Inkscape (http://www.inkscape.org/) -->

<svg
   width="437.42386"
   height="623.30481"
   viewBox="0 0 437.42386 623.30481"
   version="1.1"
   id="svg5"
   xml:space="preserve"
   xmlns="http://www.w3.org/2000/svg"
   xmlns:svg="http://www.w3.org/2000/svg"><defs
     id="defs2" /><g
     style="display:inline"
     id="g2045"
     transform="translate(-265.92743,-577.78856)"><g
       id="use3845"
       transform="matrix(0.31468248,0.31468248,-0.73614334,0.73614334,998.45419,107.55395)"
       style="display:inline"><path
         style="fill:none;stroke:#000000;stroke-width:73.4577;stroke-linecap:round;stroke-linejoin:round;stroke-dasharray:none"
         d="M 573.61419,1200.3486 C 498.00685,1168.0284 341.55387,705.04686 332.19705,629.09968"
         id="path68391" /></g><g
       id="use3848"
       transform="matrix(0.32494452,0.32494452,-0.79670096,0.79670096,1210.2896,31.495351)"
       style="display:inline"><path
         style="fill:none;stroke:#000000;stroke-width:69.4871;stroke-linecap:round;stroke-linejoin:round;stroke-dasharray:none"
         d="M 732.35759,1078.5093 C 692.73122,1062.3472 355.69502,924.82757 355.69502,924.82757 l 104.54449,184.60883 c 40.8632,-33.942 268.3547,-123.87345 308.5739,-122.04705"
         id="path68383" /></g><g
       id="use3852"
       transform="matrix(0.32920147,0.32920147,-0.76871028,0.76871028,636.97288,231.07511)"
       style="display:inline"><path
         style="fill:none;stroke:#000000;stroke-width:70.3018;stroke-linecap:round;stroke-linejoin:round;stroke-dasharray:none"
         d="m 102.97564,480.40906 c 28.42412,-60.48351 138.1944,-108.25101 206.77524,-77.44642 56.10012,25.1986 3.14274,122.07411 3.14274,122.07411 0,0 142.23596,-55.06944 199.18369,-34.12957 44.93163,16.52151 74.47412,86.93484 2.39433,117.67494 -47.57907,20.2912 -103.1755,3.76594 -103.1755,3.76594"
         id="path68523" /></g></g></svg>
