<?xml version="1.0" encoding="UTF-8" standalone="no"?>
<!-- Created with Inkscape (http://www.inkscape.org/) -->

<svg
   width="273.97742"
   height="127.59711"
   viewBox="0 0 273.97742 127.59711"
   version="1.1"
   id="svg5"
   xml:space="preserve"
   xmlns="http://www.w3.org/2000/svg"
   xmlns:svg="http://www.w3.org/2000/svg"><defs
     id="defs2" /><g
     style="display:inline"
     id="g1601"
     transform="translate(-298.77819,-48.267383)"><path
       id="use1684"
       style="display:inline;fill:none;stroke:#000000;stroke-width:65;stroke-linecap:round;stroke-linejoin:round"
       d="m 370.02687,120.8583 a 15.181935,37.715626 41.0389 0 1 -36.19013,18.5004 15.181935,37.715626 41.0389 0 1 13.18407,-38.3171 15.181935,37.715626 41.0389 0 1 36.24539,-18.6609 15.181935,37.715626 41.0389 0 1 -13.03218,38.2389 l -11.65834,-9.7293 z" /><path
       id="use1687"
       style="display:inline;fill:none;stroke:#000000;stroke-width:65;stroke-linecap:round;stroke-linejoin:round"
       d="m 524.40742,123.2089 a 15.181935,37.715626 41.0389 0 1 -36.19013,18.5004 15.181935,37.715626 41.0389 0 1 13.18407,-38.3171 15.181935,37.715626 41.0389 0 1 36.24539,-18.6609 15.181935,37.715626 41.0389 0 1 -13.03218,38.2389 l -11.65834,-9.7293 z" /></g></svg>
