<?xml version="1.0" encoding="UTF-8" standalone="no"?>
<!-- Created with Inkscape (http://www.inkscape.org/) -->

<svg
   width="547.60669"
   height="1319.1349"
   viewBox="0 0 547.60669 1319.1349"
   version="1.1"
   id="svg5"
   xml:space="preserve"
   xmlns="http://www.w3.org/2000/svg"
   xmlns:svg="http://www.w3.org/2000/svg"><defs
     id="defs2" /><g
     style="display:inline"
     id="g234"
     transform="translate(-241.76176,-696.62154)"><g
       id="use1160"
       transform="matrix(0.347253,0.347253,-0.72382816,0.72382816,1344.7392,163.25873)"
       style="display:inline"><path
         style="display:inline;fill:none;stroke:#000000;stroke-width:91.6971;stroke-linecap:round;stroke-linejoin:round;stroke-dasharray:none;stroke-opacity:1"
         d="m 551.04908,1116.7808 c 0,0 118.66682,56.4668 212.15575,101.7807 96.34544,46.6984 1007.14417,440.5764 590.09877,640.6519 C 984.98233,2035.9137 -122.5768,1538.1947 543.41339,1345.955"
         id="path99734" /></g><g
       id="use1175"
       transform="matrix(0.347253,0.347253,-0.72382816,0.72382816,1344.7392,163.25873)"
       style="display:inline"><path
         style="display:inline;fill:none;stroke:#000000;stroke-width:91.6971;stroke-linecap:round;stroke-linejoin:round;stroke-dasharray:none;stroke-opacity:1"
         d="m -92.259788,855.58375 c 12.98429,-38.40678 33.548972,-43.09564 70.095492,-44.33954 39.00343,-1.32745 573.213376,305.53659 200.562456,484.31409 -192.241074,92.2267 -443.06846,47.6055 -565.64539,-11.2251 -185.26443,-88.9176 -207.29995,-196.7758 -37.61002,-278.1837 256.05054,-122.83901 751.58343,3.0135 975.90633,110.6313"
         id="path99898" /></g></g></svg>
