<?xml version="1.0" encoding="UTF-8" standalone="no"?>
<!-- Created with Inkscape (http://www.inkscape.org/) -->

<svg
   width="481.53665"
   height="891.33398"
   viewBox="0 0 481.53665 891.33398"
   version="1.1"
   id="svg5"
   xml:space="preserve"
   xmlns="http://www.w3.org/2000/svg"
   xmlns:svg="http://www.w3.org/2000/svg"><defs
     id="defs2" /><g
     style="display:inline"
     id="g502"
     transform="translate(-243.39212,-312.1061)"><g
       id="use780"
       transform="matrix(0.34124426,0.34124426,-0.73820527,0.73820527,773.53099,87.492722)"
       style="display:inline"><path
         style="fill:none;stroke:#000000;stroke-width:91.5765;stroke-linecap:round;stroke-linejoin:round"
         d="m 853.43834,1062.214 c 18.62624,-10.13 5.2665,-40.6015 -19.1575,-55.4496 C 799.73444,985.76254 -133.0764,586.55253 -231.73933,467.22654"
         id="path150894" /></g><g
       id="g786"
       transform="matrix(0.34463604,0.34463604,-0.73533668,0.73533668,869.80832,35.284842)"><path
         style="fill:none;stroke:#000000;stroke-width:91.3269;stroke-linecap:round;stroke-linejoin:round"
         d="m -289.62041,662.19442 c 37.70389,-175.34334 466.5893,-308.87193 507.81268,-290.04515 88.9904,40.64203 120.7539,127.41965 79.32368,413.73258 407.17818,-47.15424 650.21655,-95.0479 853.34165,0.95743 137.547,65.01042 110.3573,156.93697 6.7941,208.67694 -53.7725,26.86478 -169.20583,55.94538 -309.05463,45.71028"
         id="path783" /></g></g></svg>
