<?xml version="1.0" encoding="UTF-8" standalone="no"?>
<!-- Created with Inkscape (http://www.inkscape.org/) -->

<svg
   width="406.25934"
   height="895.56763"
   viewBox="0 0 406.25934 895.56763"
   version="1.1"
   id="svg5"
   xml:space="preserve"
   xmlns="http://www.w3.org/2000/svg"
   xmlns:svg="http://www.w3.org/2000/svg"><defs
     id="defs2" /><g
     style="display:inline"
     id="g2047"
     transform="translate(-235.58197,-453.3394)"><g
       id="use3871"
       style="display:inline"
       transform="rotate(180,442.41427,833.52415)"><path
         id="use70037"
         style="display:inline;fill:none;stroke:#000000;stroke-width:65;stroke-linecap:round;stroke-linejoin:round"
         d="m 420.57873,1161.0533 a 15.181935,37.715626 41.0389 0 1 -36.19013,18.5004 15.181935,37.715626 41.0389 0 1 13.18407,-38.3171 15.181935,37.715626 41.0389 0 1 36.24539,-18.6609 15.181935,37.715626 41.0389 0 1 -13.03218,38.2389 l -11.65834,-9.7293 z" /><g
         id="g70041"
         transform="matrix(0.34000737,0.34000737,-0.74804084,0.74804084,818.94149,-2.1706033)"><path
           style="fill:none;stroke:#000000;stroke-width:91.1723;stroke-linecap:round;stroke-linejoin:round"
           d="M -105.52595,671.91132 C -315.46477,576.24023 144.59875,342.0303 446.53398,479.8907 c 345.35096,157.68356 -16.56172,295.78999 -16.56172,295.78999 0,0 262.12667,139.18026 318.46064,146.13717 56.33392,6.95691 161.32246,-11.01922 149.45724,-45.79104"
           id="path70039" /></g></g></g></svg>
